M48
;GenerationSoftware,Autodesk,EAGLE,9.4.2*%
;CreationDate,2019-09-22T14:39:46Z*%
FMAT,2
ICI,OFF
METRIC,TZ,000.000
T10C0.350
T9C0.700
T8C0.800
T7C0.813
T6C0.900
T5C1.000
T4C1.016
T3C1.118
T2C1.600
T1C2.500
%
G90
M71
T1
X3973Y17962
X50963Y30662
X50963Y5262
T2
X98490Y12065
X90870Y12065
X97155Y5715
T3
X83820Y17780
X83820Y7620
X76200Y15240
X76200Y5080
X72390Y5080
X72390Y15240
X80010Y15240
X80010Y5080
T4
X59690Y13970
X59690Y16510
X59690Y19050
X59690Y21590
X59690Y24130
X78613Y27940
X63627Y27940
T5
X53340Y22780
X53340Y12780
X49530Y21463
X49530Y13843
T6
X84437Y24874
X88029Y28466
T7
X87630Y17780
X97790Y17780
X60960Y5080
X55880Y5080
X97790Y30480
X97790Y20320
X93980Y20320
X64770Y15240
X64770Y5080
X31750Y21590
X11430Y20320
X11430Y17780
X11430Y15240
X11430Y12700
X19050Y12700
X19050Y15240
X19050Y17780
X19050Y20320
X93980Y30480
X67310Y17780
X67310Y22860
X39370Y11430
X39370Y13462
X41910Y21590
X68580Y5080
X68580Y15240
T8
X33020Y25416
X30480Y25416
X27940Y25416
X25400Y25416
X22860Y25416
X20320Y25416
X17780Y25416
X15240Y25416
X12700Y25416
X10160Y25416
X7620Y25416
X5080Y25416
X2540Y25416
X2540Y5096
X5080Y5096
X7620Y5096
X10160Y5096
X12700Y5096
X15240Y5096
X17780Y5096
X20320Y5096
X22860Y5096
X25400Y5096
X27940Y5096
X30480Y5096
X33020Y5096
X35560Y5096
X38100Y5096
X40640Y5096
X43180Y25416
X43180Y5096
X35560Y25416
X38100Y25416
X40640Y25416
X45720Y7620
X43180Y7620
X40640Y7620
X45720Y30480
X43180Y30480
X40640Y30480
X38100Y30480
X35560Y30480
X33020Y30480
X30480Y30480
X27940Y30480
X25400Y30480
X22860Y30480
X20320Y30480
X17780Y30480
X15240Y30480
X12700Y30480
X10160Y30480
X7620Y30480
X5080Y30480
X2540Y30480
X2540Y7620
X5080Y7620
X7620Y7620
X10160Y7620
X12700Y7620
X15240Y7620
X17780Y7620
X20320Y7620
X22860Y7620
X25400Y7620
X27940Y7620
X30480Y7620
X33020Y7620
X35560Y7620
X38100Y7620
T9
X27480Y19590
X25980Y19590
X24480Y19590
X28980Y19590
T10
X71120Y17780
X36830Y29210
X55880Y20320
X3810Y11430
X86360Y31750
X54610Y16510
X34290Y22860
X31750Y10160
M30