M48
;GenerationSoftware,Autodesk,EAGLE,9.4.0*%
;CreationDate,2019-05-16T12:08:39Z*%
FMAT,2
ICI,OFF
METRIC,TZ,000.000
T8C0.350
T7C0.600
T6C0.850
T5C0.900
T4C1.000
T3C1.016
T2C1.200
T1C3.200
%
G90
M71
T1
X2540Y49530
X96520Y49530
X96520Y88900
X2540Y88900
X2540Y2540
X96520Y2540
X96520Y41910
X2540Y41910
T2
X3810Y10640
X3810Y7140
X3810Y57630
X3810Y54130
T3
X96241Y18491
X91719Y18491
X96241Y11989
X91719Y11989
X96241Y65481
X91719Y65481
X96241Y58979
X91719Y58979
T4
X80010Y71120
X80010Y81280
X80010Y83820
X12710Y16456
X15250Y16456
X17790Y41900
X17790Y16456
X35560Y57150
X33020Y57150
X30480Y57150
X27940Y57150
X38100Y57150
X40640Y57150
X59690Y63500
X59690Y66040
X59690Y68580
X59690Y71120
X59690Y73660
X81280Y57150
X78740Y57150
X86360Y57150
X83820Y57150
X76200Y57150
X20330Y16456
X22870Y16456
X25410Y16456
X27950Y16456
X80010Y73660
X80010Y76200
X45730Y88890
X43190Y88890
X40650Y88890
X38110Y88890
X35570Y88890
X33030Y88890
X30490Y88890
X27950Y88890
X25410Y88890
X22870Y88890
X20330Y88890
X17790Y88890
X15250Y88890
X12710Y88890
X10170Y88890
X45730Y63446
X43190Y63446
X40650Y63446
X38110Y63446
X35570Y63446
X33030Y63446
X30490Y63446
X27950Y63446
X25410Y63446
X22870Y63446
X20330Y63446
X17790Y63446
X15250Y63446
X12710Y63446
X10170Y63446
X30490Y16456
X33030Y16456
X20330Y41900
X35570Y16456
X80010Y78740
X66040Y83820
X63500Y83820
X60960Y83820
X60960Y36830
X63500Y36830
X66040Y36830
X80010Y31750
X80010Y29210
X80010Y26670
X80010Y24130
X80010Y34290
X80010Y36830
X38110Y16456
X40650Y16456
X22870Y41900
X43190Y16456
X35560Y10160
X33020Y10160
X30480Y10160
X27940Y10160
X38100Y10160
X40640Y10160
X59690Y16510
X59690Y19050
X59690Y21590
X59690Y24130
X59690Y26670
X81280Y10160
X78740Y10160
X86360Y10160
X83820Y10160
X76200Y10160
X45730Y16456
X10170Y41900
X12710Y41900
X15250Y41900
X10170Y16456
X25410Y41900
X45730Y41900
X43190Y41900
X40650Y41900
X38110Y41900
X35570Y41900
X33030Y41900
X30490Y41900
X27950Y41900
T5
X67310Y16510
X54610Y10160
X67310Y63500
X54610Y57150
T6
X67310Y66040
X62230Y10160
X57150Y10160
X59690Y10160
X67310Y71120
X67310Y68580
X62230Y57150
X57150Y57150
X59690Y57150
X67310Y21590
X67310Y19050
X67310Y24130
T7
X71120Y31496
X55880Y31496
X55880Y40640
X71120Y40640
X71120Y87630
X71120Y78486
X55880Y78486
X55880Y87630
T8
X15240Y26670
X16510Y26670
X17780Y26670
X15240Y73660
X16510Y73660
X17780Y73660
M30