G04 EAGLE Gerber RS-274X export*
G75*
%MOMM*%
%FSLAX34Y34*%
%LPD*%
%INBottom Copper*%
%IPPOS*%
%AMOC8*
5,1,8,0,0,1.08239X$1,22.5*%
G01*
%ADD10P,1.429621X8X112.500000*%
%ADD11C,1.320800*%
%ADD12P,1.649562X8X202.500000*%
%ADD13P,1.429621X8X292.500000*%
%ADD14C,1.676400*%
%ADD15P,1.429621X8X22.500000*%
%ADD16P,1.429621X8X202.500000*%
%ADD17R,1.508000X1.508000*%
%ADD18C,1.208000*%
%ADD19C,1.320800*%
%ADD20R,2.400000X2.400000*%
%ADD21P,1.415766X8X202.500000*%
%ADD22R,1.308000X1.308000*%
%ADD23P,1.524005X8X247.500000*%
%ADD24C,1.524000*%
%ADD25R,0.635000X1.270000*%
%ADD26R,0.406400X0.254000*%
%ADD27C,0.152400*%
%ADD28C,0.756400*%
%ADD29C,0.254000*%

G36*
X635019Y30450D02*
X635019Y30450D01*
X635039Y30448D01*
X635140Y30470D01*
X635242Y30487D01*
X635260Y30496D01*
X635280Y30500D01*
X635368Y30553D01*
X635460Y30602D01*
X635474Y30616D01*
X635491Y30627D01*
X635558Y30705D01*
X635629Y30780D01*
X635638Y30798D01*
X635651Y30813D01*
X635690Y30909D01*
X635733Y31003D01*
X635735Y31023D01*
X635743Y31042D01*
X635761Y31208D01*
X635761Y32987D01*
X710114Y32932D01*
X710185Y32944D01*
X710257Y32946D01*
X710306Y32963D01*
X710357Y32972D01*
X710420Y33005D01*
X710488Y33030D01*
X710528Y33063D01*
X710574Y33087D01*
X710624Y33139D01*
X710680Y33184D01*
X710708Y33227D01*
X710744Y33265D01*
X710774Y33330D01*
X710813Y33391D01*
X710826Y33441D01*
X710847Y33488D01*
X710855Y33559D01*
X710873Y33629D01*
X710869Y33681D01*
X710875Y33732D01*
X710859Y33803D01*
X710854Y33874D01*
X710834Y33922D01*
X710823Y33973D01*
X710786Y34035D01*
X710758Y34101D01*
X710713Y34156D01*
X710697Y34184D01*
X710679Y34199D01*
X710653Y34232D01*
X706027Y38858D01*
X702817Y46606D01*
X702817Y54994D01*
X706027Y62742D01*
X711958Y68673D01*
X719706Y71883D01*
X728094Y71883D01*
X735842Y68673D01*
X741773Y62742D01*
X742247Y61599D01*
X742284Y61538D01*
X742314Y61473D01*
X742349Y61434D01*
X742376Y61390D01*
X742432Y61344D01*
X742480Y61291D01*
X742526Y61266D01*
X742566Y61233D01*
X742633Y61207D01*
X742696Y61173D01*
X742747Y61164D01*
X742795Y61145D01*
X742867Y61142D01*
X742938Y61129D01*
X742989Y61137D01*
X743041Y61135D01*
X743110Y61155D01*
X743181Y61165D01*
X743227Y61189D01*
X743277Y61203D01*
X743336Y61244D01*
X743400Y61276D01*
X743437Y61314D01*
X743479Y61343D01*
X743522Y61401D01*
X743572Y61452D01*
X743607Y61515D01*
X743626Y61541D01*
X743633Y61563D01*
X743653Y61599D01*
X744127Y62742D01*
X750058Y68673D01*
X757806Y71883D01*
X766194Y71883D01*
X773942Y68673D01*
X779873Y62742D01*
X780347Y61599D01*
X780384Y61538D01*
X780414Y61473D01*
X780449Y61434D01*
X780476Y61390D01*
X780531Y61344D01*
X780580Y61291D01*
X780626Y61266D01*
X780666Y61233D01*
X780733Y61207D01*
X780796Y61173D01*
X780847Y61164D01*
X780895Y61145D01*
X780967Y61142D01*
X781038Y61129D01*
X781089Y61137D01*
X781141Y61135D01*
X781210Y61155D01*
X781281Y61165D01*
X781327Y61189D01*
X781377Y61203D01*
X781436Y61244D01*
X781500Y61276D01*
X781537Y61314D01*
X781579Y61343D01*
X781622Y61401D01*
X781672Y61452D01*
X781707Y61515D01*
X781726Y61541D01*
X781733Y61563D01*
X781753Y61599D01*
X782227Y62742D01*
X788158Y68673D01*
X795906Y71883D01*
X804294Y71883D01*
X812042Y68673D01*
X817973Y62742D01*
X821183Y54994D01*
X821183Y46606D01*
X817973Y38858D01*
X813272Y34156D01*
X813230Y34098D01*
X813181Y34046D01*
X813159Y33999D01*
X813128Y33956D01*
X813107Y33888D01*
X813077Y33823D01*
X813071Y33771D01*
X813056Y33721D01*
X813058Y33650D01*
X813050Y33579D01*
X813061Y33528D01*
X813062Y33475D01*
X813087Y33408D01*
X813102Y33338D01*
X813128Y33294D01*
X813146Y33244D01*
X813191Y33188D01*
X813228Y33127D01*
X813267Y33093D01*
X813300Y33052D01*
X813360Y33014D01*
X813415Y32967D01*
X813463Y32948D01*
X813507Y32919D01*
X813576Y32902D01*
X813643Y32875D01*
X813714Y32867D01*
X813746Y32859D01*
X813769Y32861D01*
X813809Y32857D01*
X986367Y32731D01*
X986387Y32734D01*
X986407Y32732D01*
X986508Y32754D01*
X986610Y32770D01*
X986628Y32780D01*
X986648Y32784D01*
X986736Y32837D01*
X986828Y32885D01*
X986842Y32900D01*
X986859Y32910D01*
X986926Y32988D01*
X986997Y33063D01*
X987006Y33082D01*
X987019Y33097D01*
X987058Y33193D01*
X987101Y33286D01*
X987103Y33306D01*
X987111Y33325D01*
X987129Y33492D01*
X987129Y43427D01*
X987122Y43474D01*
X987123Y43522D01*
X987102Y43595D01*
X987090Y43670D01*
X987067Y43712D01*
X987053Y43758D01*
X987010Y43820D01*
X986974Y43887D01*
X986940Y43920D01*
X986912Y43960D01*
X986851Y44004D01*
X986796Y44057D01*
X986753Y44077D01*
X986714Y44105D01*
X986642Y44128D01*
X986573Y44160D01*
X986525Y44165D01*
X986480Y44180D01*
X986404Y44179D01*
X986329Y44187D01*
X986282Y44177D01*
X986234Y44176D01*
X986162Y44151D01*
X986088Y44135D01*
X986047Y44110D01*
X986002Y44094D01*
X985942Y44048D01*
X985877Y44009D01*
X985846Y43972D01*
X985808Y43943D01*
X985732Y43839D01*
X985717Y43822D01*
X985715Y43816D01*
X985709Y43808D01*
X985583Y43590D01*
X985110Y43117D01*
X984531Y42782D01*
X983884Y42609D01*
X973073Y42609D01*
X973073Y56388D01*
X973070Y56408D01*
X973072Y56427D01*
X973050Y56529D01*
X973033Y56631D01*
X973024Y56648D01*
X973020Y56668D01*
X972967Y56757D01*
X972918Y56848D01*
X972904Y56862D01*
X972894Y56879D01*
X972815Y56946D01*
X972740Y57017D01*
X972722Y57026D01*
X972707Y57039D01*
X972611Y57077D01*
X972517Y57121D01*
X972497Y57123D01*
X972479Y57131D01*
X972312Y57149D01*
X971549Y57149D01*
X971549Y57912D01*
X971546Y57932D01*
X971548Y57951D01*
X971526Y58053D01*
X971509Y58155D01*
X971500Y58172D01*
X971496Y58192D01*
X971443Y58281D01*
X971394Y58372D01*
X971380Y58386D01*
X971370Y58403D01*
X971291Y58470D01*
X971216Y58541D01*
X971198Y58550D01*
X971183Y58563D01*
X971087Y58602D01*
X970993Y58645D01*
X970973Y58647D01*
X970955Y58655D01*
X970788Y58673D01*
X957009Y58673D01*
X957009Y63500D01*
X957006Y63520D01*
X957008Y63539D01*
X956986Y63641D01*
X956970Y63743D01*
X956960Y63760D01*
X956956Y63780D01*
X956903Y63869D01*
X956854Y63960D01*
X956840Y63974D01*
X956830Y63991D01*
X956751Y64058D01*
X956676Y64130D01*
X956658Y64138D01*
X956643Y64151D01*
X956547Y64190D01*
X956453Y64233D01*
X956433Y64235D01*
X956415Y64243D01*
X956248Y64261D01*
X889315Y64261D01*
X864361Y89215D01*
X864361Y162122D01*
X864347Y162213D01*
X864339Y162303D01*
X864327Y162333D01*
X864322Y162365D01*
X864279Y162446D01*
X864243Y162530D01*
X864217Y162562D01*
X864206Y162583D01*
X864183Y162605D01*
X864166Y162627D01*
X864161Y162634D01*
X864156Y162638D01*
X864138Y162661D01*
X858305Y168494D01*
X858267Y168521D01*
X858236Y168555D01*
X858168Y168593D01*
X858105Y168638D01*
X858061Y168651D01*
X858021Y168674D01*
X857944Y168687D01*
X857870Y168710D01*
X857824Y168709D01*
X857779Y168717D01*
X857702Y168706D01*
X857624Y168704D01*
X857581Y168688D01*
X857535Y168682D01*
X857466Y168646D01*
X857393Y168620D01*
X857357Y168591D01*
X857316Y168570D01*
X857262Y168514D01*
X857201Y168466D01*
X857176Y168427D01*
X857144Y168394D01*
X857078Y168275D01*
X857068Y168259D01*
X857067Y168254D01*
X857063Y168247D01*
X856073Y165858D01*
X850142Y159927D01*
X842394Y156717D01*
X834006Y156717D01*
X826258Y159927D01*
X820327Y165858D01*
X817117Y173606D01*
X817117Y181994D01*
X820327Y189742D01*
X826258Y195673D01*
X834006Y198883D01*
X842394Y198883D01*
X850142Y195673D01*
X856073Y189742D01*
X857063Y187353D01*
X857087Y187313D01*
X857103Y187270D01*
X857151Y187210D01*
X857193Y187143D01*
X857228Y187114D01*
X857257Y187078D01*
X857322Y187036D01*
X857382Y186987D01*
X857425Y186970D01*
X857464Y186945D01*
X857539Y186926D01*
X857612Y186898D01*
X857658Y186897D01*
X857702Y186885D01*
X857780Y186891D01*
X857857Y186888D01*
X857902Y186901D01*
X857947Y186904D01*
X858019Y186935D01*
X858094Y186957D01*
X858131Y186983D01*
X858174Y187001D01*
X858280Y187086D01*
X858296Y187097D01*
X858299Y187101D01*
X858305Y187106D01*
X868304Y197105D01*
X870966Y197105D01*
X871056Y197119D01*
X871147Y197127D01*
X871177Y197139D01*
X871209Y197144D01*
X871289Y197187D01*
X871373Y197223D01*
X871405Y197249D01*
X871426Y197260D01*
X871448Y197283D01*
X871504Y197328D01*
X876615Y202439D01*
X919734Y202439D01*
X919754Y202442D01*
X919773Y202440D01*
X919875Y202462D01*
X919977Y202479D01*
X919994Y202488D01*
X920014Y202492D01*
X920103Y202545D01*
X920194Y202594D01*
X920208Y202608D01*
X920225Y202618D01*
X920292Y202697D01*
X920364Y202772D01*
X920372Y202790D01*
X920385Y202805D01*
X920424Y202901D01*
X920467Y202995D01*
X920469Y203015D01*
X920477Y203033D01*
X920495Y203200D01*
X920495Y211196D01*
X931804Y222505D01*
X947796Y222505D01*
X958312Y211989D01*
X958328Y211978D01*
X958340Y211962D01*
X958428Y211906D01*
X958511Y211846D01*
X958530Y211840D01*
X958547Y211829D01*
X958648Y211804D01*
X958747Y211773D01*
X958766Y211774D01*
X958786Y211769D01*
X958889Y211777D01*
X958992Y211780D01*
X959011Y211787D01*
X959031Y211788D01*
X959126Y211829D01*
X959223Y211864D01*
X959239Y211877D01*
X959257Y211884D01*
X959388Y211989D01*
X969904Y222505D01*
X985266Y222505D01*
X985356Y222519D01*
X985447Y222527D01*
X985477Y222539D01*
X985509Y222544D01*
X985589Y222587D01*
X985673Y222623D01*
X985705Y222649D01*
X985726Y222660D01*
X985748Y222683D01*
X985804Y222728D01*
X986906Y223830D01*
X986959Y223904D01*
X987019Y223973D01*
X987031Y224003D01*
X987050Y224029D01*
X987077Y224116D01*
X987111Y224201D01*
X987115Y224242D01*
X987122Y224265D01*
X987121Y224297D01*
X987129Y224368D01*
X987129Y284890D01*
X987118Y284961D01*
X987116Y285033D01*
X987098Y285082D01*
X987090Y285133D01*
X987056Y285197D01*
X987031Y285264D01*
X986999Y285305D01*
X986974Y285351D01*
X986922Y285400D01*
X986878Y285456D01*
X986834Y285484D01*
X986796Y285520D01*
X986731Y285550D01*
X986671Y285589D01*
X986620Y285602D01*
X986573Y285624D01*
X986502Y285631D01*
X986432Y285649D01*
X986380Y285645D01*
X986329Y285651D01*
X986258Y285635D01*
X986187Y285630D01*
X986139Y285609D01*
X986088Y285598D01*
X986027Y285562D01*
X985961Y285534D01*
X985913Y285495D01*
X969904Y285495D01*
X959388Y296011D01*
X959372Y296022D01*
X959360Y296038D01*
X959272Y296094D01*
X959189Y296154D01*
X959170Y296160D01*
X959153Y296171D01*
X959052Y296196D01*
X958953Y296227D01*
X958934Y296226D01*
X958914Y296231D01*
X958811Y296223D01*
X958708Y296220D01*
X958689Y296213D01*
X958669Y296212D01*
X958574Y296172D01*
X958477Y296136D01*
X958461Y296123D01*
X958443Y296116D01*
X958312Y296011D01*
X947796Y285495D01*
X931804Y285495D01*
X920495Y296804D01*
X920495Y312796D01*
X931804Y324105D01*
X947796Y324105D01*
X958312Y313589D01*
X958328Y313578D01*
X958340Y313562D01*
X958428Y313506D01*
X958511Y313446D01*
X958530Y313440D01*
X958547Y313429D01*
X958648Y313404D01*
X958747Y313373D01*
X958766Y313374D01*
X958786Y313369D01*
X958889Y313377D01*
X958992Y313380D01*
X959011Y313387D01*
X959031Y313388D01*
X959126Y313429D01*
X959223Y313464D01*
X959239Y313477D01*
X959257Y313484D01*
X959388Y313589D01*
X969904Y324105D01*
X985914Y324105D01*
X985940Y324080D01*
X985987Y324058D01*
X986029Y324028D01*
X986098Y324007D01*
X986163Y323976D01*
X986215Y323971D01*
X986264Y323955D01*
X986336Y323957D01*
X986407Y323949D01*
X986458Y323960D01*
X986510Y323962D01*
X986578Y323986D01*
X986648Y324002D01*
X986693Y324028D01*
X986741Y324046D01*
X986797Y324091D01*
X986859Y324128D01*
X986893Y324167D01*
X986933Y324200D01*
X986972Y324260D01*
X987019Y324315D01*
X987038Y324363D01*
X987066Y324407D01*
X987084Y324476D01*
X987111Y324543D01*
X987119Y324614D01*
X987127Y324645D01*
X987125Y324669D01*
X987129Y324710D01*
X987129Y325978D01*
X987126Y325998D01*
X987128Y326017D01*
X987106Y326119D01*
X987090Y326221D01*
X987080Y326238D01*
X987076Y326258D01*
X987023Y326347D01*
X986974Y326438D01*
X986960Y326452D01*
X986950Y326469D01*
X986871Y326536D01*
X986796Y326608D01*
X986778Y326616D01*
X986763Y326629D01*
X986667Y326668D01*
X986573Y326711D01*
X986553Y326713D01*
X986535Y326721D01*
X986368Y326739D01*
X902461Y326739D01*
X902461Y328518D01*
X902458Y328538D01*
X902460Y328557D01*
X902438Y328659D01*
X902421Y328761D01*
X902412Y328778D01*
X902408Y328798D01*
X902355Y328887D01*
X902306Y328978D01*
X902292Y328992D01*
X902282Y329009D01*
X902203Y329076D01*
X902128Y329148D01*
X902110Y329156D01*
X902095Y329169D01*
X901999Y329208D01*
X901905Y329251D01*
X901885Y329253D01*
X901867Y329261D01*
X901700Y329279D01*
X517968Y329279D01*
X517872Y329264D01*
X517775Y329254D01*
X517751Y329244D01*
X517725Y329240D01*
X517639Y329194D01*
X517550Y329154D01*
X517531Y329137D01*
X517508Y329124D01*
X517441Y329054D01*
X517369Y328988D01*
X517357Y328965D01*
X517339Y328946D01*
X517298Y328858D01*
X517251Y328772D01*
X517246Y328747D01*
X517235Y328723D01*
X517224Y328626D01*
X517207Y328530D01*
X517211Y328504D01*
X517208Y328479D01*
X517228Y328383D01*
X517243Y328287D01*
X517254Y328264D01*
X517260Y328238D01*
X517310Y328155D01*
X517354Y328068D01*
X517373Y328049D01*
X517386Y328027D01*
X517460Y327964D01*
X517530Y327896D01*
X517558Y327880D01*
X517573Y327867D01*
X517604Y327855D01*
X517677Y327815D01*
X522466Y325831D01*
X528841Y319456D01*
X532291Y311127D01*
X532291Y302113D01*
X528841Y293784D01*
X522466Y287409D01*
X514137Y283959D01*
X505123Y283959D01*
X496794Y287409D01*
X490419Y293784D01*
X486969Y302113D01*
X486969Y311127D01*
X490419Y319456D01*
X496794Y325831D01*
X501583Y327815D01*
X501666Y327866D01*
X501752Y327912D01*
X501770Y327930D01*
X501792Y327944D01*
X501855Y328020D01*
X501921Y328090D01*
X501932Y328114D01*
X501949Y328134D01*
X501984Y328225D01*
X502025Y328313D01*
X502028Y328339D01*
X502037Y328363D01*
X502041Y328461D01*
X502052Y328557D01*
X502047Y328583D01*
X502048Y328609D01*
X502021Y328703D01*
X502000Y328798D01*
X501987Y328820D01*
X501979Y328845D01*
X501924Y328925D01*
X501874Y329009D01*
X501854Y329026D01*
X501839Y329047D01*
X501761Y329106D01*
X501687Y329169D01*
X501663Y329179D01*
X501642Y329194D01*
X501549Y329224D01*
X501459Y329261D01*
X501426Y329264D01*
X501408Y329270D01*
X501375Y329270D01*
X501292Y329279D01*
X114300Y329279D01*
X114280Y329276D01*
X114261Y329278D01*
X114159Y329256D01*
X114057Y329240D01*
X114040Y329230D01*
X114020Y329226D01*
X113931Y329173D01*
X113840Y329124D01*
X113826Y329110D01*
X113809Y329100D01*
X113742Y329021D01*
X113671Y328946D01*
X113662Y328928D01*
X113649Y328913D01*
X113610Y328817D01*
X113567Y328723D01*
X113565Y328703D01*
X113557Y328685D01*
X113539Y328518D01*
X113539Y212616D01*
X113542Y212596D01*
X113540Y212577D01*
X113562Y212475D01*
X113579Y212373D01*
X113588Y212356D01*
X113592Y212336D01*
X113645Y212247D01*
X113694Y212156D01*
X113708Y212142D01*
X113718Y212125D01*
X113797Y212058D01*
X113872Y211986D01*
X113890Y211978D01*
X113905Y211965D01*
X114001Y211926D01*
X114095Y211883D01*
X114115Y211881D01*
X114133Y211873D01*
X114300Y211855D01*
X122626Y211855D01*
X125807Y210537D01*
X128241Y208103D01*
X128912Y206483D01*
X128974Y206383D01*
X129034Y206283D01*
X129038Y206279D01*
X129042Y206274D01*
X129132Y206199D01*
X129221Y206123D01*
X129226Y206121D01*
X129231Y206117D01*
X129340Y206075D01*
X129449Y206031D01*
X129456Y206030D01*
X129461Y206029D01*
X129479Y206028D01*
X129615Y206013D01*
X141333Y206013D01*
X141353Y206016D01*
X141372Y206014D01*
X141474Y206036D01*
X141576Y206052D01*
X141593Y206062D01*
X141613Y206066D01*
X141702Y206119D01*
X141793Y206168D01*
X141807Y206182D01*
X141824Y206192D01*
X141891Y206271D01*
X141963Y206346D01*
X141971Y206364D01*
X141984Y206379D01*
X142023Y206475D01*
X142066Y206569D01*
X142068Y206589D01*
X142076Y206607D01*
X142094Y206774D01*
X142094Y210399D01*
X143296Y211601D01*
X151344Y211601D01*
X151515Y211430D01*
X151531Y211418D01*
X151544Y211403D01*
X151631Y211347D01*
X151715Y211286D01*
X151734Y211281D01*
X151751Y211270D01*
X151851Y211245D01*
X151950Y211214D01*
X151970Y211215D01*
X151989Y211210D01*
X152092Y211218D01*
X152196Y211220D01*
X152215Y211227D01*
X152235Y211229D01*
X152330Y211269D01*
X152427Y211305D01*
X152442Y211317D01*
X152461Y211325D01*
X152592Y211430D01*
X152745Y211583D01*
X153324Y211918D01*
X153971Y212091D01*
X155957Y212091D01*
X155957Y206161D01*
X155972Y206071D01*
X155979Y205980D01*
X155991Y205950D01*
X155997Y205918D01*
X156039Y205837D01*
X156075Y205753D01*
X156101Y205721D01*
X156112Y205701D01*
X156135Y205678D01*
X156180Y205622D01*
X156483Y205319D01*
X156483Y203962D01*
X156486Y203942D01*
X156484Y203923D01*
X156506Y203821D01*
X156522Y203719D01*
X156532Y203702D01*
X156536Y203682D01*
X156589Y203593D01*
X156638Y203502D01*
X156652Y203488D01*
X156662Y203471D01*
X156741Y203404D01*
X156816Y203333D01*
X156834Y203324D01*
X156849Y203311D01*
X156945Y203272D01*
X157039Y203229D01*
X157059Y203227D01*
X157077Y203219D01*
X157244Y203201D01*
X157481Y203201D01*
X157481Y203199D01*
X157244Y203199D01*
X157224Y203196D01*
X157205Y203198D01*
X157103Y203176D01*
X157001Y203159D01*
X156984Y203150D01*
X156964Y203146D01*
X156875Y203093D01*
X156784Y203044D01*
X156770Y203030D01*
X156753Y203020D01*
X156686Y202941D01*
X156614Y202866D01*
X156606Y202848D01*
X156593Y202833D01*
X156554Y202737D01*
X156511Y202643D01*
X156509Y202623D01*
X156501Y202605D01*
X156483Y202438D01*
X156483Y201081D01*
X156180Y200778D01*
X156127Y200704D01*
X156067Y200634D01*
X156055Y200604D01*
X156036Y200578D01*
X156009Y200491D01*
X155975Y200406D01*
X155971Y200365D01*
X155964Y200343D01*
X155965Y200311D01*
X155957Y200239D01*
X155957Y194309D01*
X153971Y194309D01*
X153324Y194482D01*
X152745Y194817D01*
X152592Y194970D01*
X152576Y194982D01*
X152563Y194997D01*
X152476Y195053D01*
X152392Y195114D01*
X152373Y195119D01*
X152356Y195130D01*
X152256Y195155D01*
X152157Y195186D01*
X152137Y195185D01*
X152118Y195190D01*
X152015Y195182D01*
X151911Y195180D01*
X151892Y195173D01*
X151872Y195171D01*
X151777Y195131D01*
X151680Y195095D01*
X151665Y195083D01*
X151646Y195075D01*
X151515Y194970D01*
X151344Y194799D01*
X143296Y194799D01*
X142094Y196001D01*
X142094Y199626D01*
X142091Y199646D01*
X142093Y199665D01*
X142071Y199767D01*
X142055Y199869D01*
X142045Y199886D01*
X142041Y199906D01*
X141988Y199995D01*
X141939Y200086D01*
X141925Y200100D01*
X141915Y200117D01*
X141836Y200184D01*
X141761Y200256D01*
X141743Y200264D01*
X141728Y200277D01*
X141632Y200316D01*
X141538Y200359D01*
X141518Y200361D01*
X141500Y200369D01*
X141333Y200387D01*
X129615Y200387D01*
X129501Y200368D01*
X129384Y200351D01*
X129379Y200349D01*
X129373Y200348D01*
X129270Y200293D01*
X129165Y200240D01*
X129161Y200235D01*
X129155Y200232D01*
X129075Y200148D01*
X128993Y200064D01*
X128989Y200058D01*
X128986Y200054D01*
X128978Y200037D01*
X128912Y199917D01*
X128241Y198297D01*
X125807Y195863D01*
X122626Y194545D01*
X114300Y194545D01*
X114280Y194542D01*
X114261Y194544D01*
X114159Y194522D01*
X114057Y194506D01*
X114040Y194496D01*
X114020Y194492D01*
X113931Y194439D01*
X113840Y194390D01*
X113826Y194376D01*
X113809Y194366D01*
X113742Y194287D01*
X113671Y194212D01*
X113662Y194194D01*
X113649Y194179D01*
X113610Y194083D01*
X113567Y193989D01*
X113565Y193969D01*
X113557Y193951D01*
X113539Y193784D01*
X113539Y187216D01*
X113542Y187196D01*
X113540Y187177D01*
X113562Y187075D01*
X113579Y186973D01*
X113588Y186956D01*
X113592Y186936D01*
X113645Y186847D01*
X113694Y186756D01*
X113708Y186742D01*
X113718Y186725D01*
X113797Y186658D01*
X113872Y186586D01*
X113890Y186578D01*
X113905Y186565D01*
X114001Y186526D01*
X114095Y186483D01*
X114115Y186481D01*
X114133Y186473D01*
X114300Y186455D01*
X122626Y186455D01*
X125807Y185137D01*
X128241Y182703D01*
X128912Y181083D01*
X128974Y180983D01*
X129034Y180883D01*
X129038Y180879D01*
X129042Y180874D01*
X129132Y180799D01*
X129221Y180723D01*
X129226Y180721D01*
X129231Y180717D01*
X129340Y180675D01*
X129449Y180631D01*
X129456Y180630D01*
X129461Y180629D01*
X129479Y180628D01*
X129615Y180613D01*
X141333Y180613D01*
X141353Y180616D01*
X141372Y180614D01*
X141474Y180636D01*
X141576Y180652D01*
X141593Y180662D01*
X141613Y180666D01*
X141702Y180719D01*
X141793Y180768D01*
X141807Y180782D01*
X141824Y180792D01*
X141891Y180871D01*
X141963Y180946D01*
X141971Y180964D01*
X141984Y180979D01*
X142023Y181075D01*
X142066Y181169D01*
X142068Y181189D01*
X142076Y181207D01*
X142094Y181374D01*
X142094Y184999D01*
X143296Y186201D01*
X151344Y186201D01*
X151515Y186030D01*
X151531Y186018D01*
X151544Y186003D01*
X151631Y185947D01*
X151715Y185886D01*
X151734Y185881D01*
X151751Y185870D01*
X151851Y185845D01*
X151950Y185814D01*
X151970Y185815D01*
X151989Y185810D01*
X152092Y185818D01*
X152196Y185820D01*
X152215Y185827D01*
X152235Y185829D01*
X152330Y185869D01*
X152427Y185905D01*
X152442Y185917D01*
X152461Y185925D01*
X152592Y186030D01*
X152745Y186183D01*
X153324Y186518D01*
X153971Y186691D01*
X155957Y186691D01*
X155957Y180761D01*
X155972Y180671D01*
X155979Y180580D01*
X155991Y180550D01*
X155997Y180518D01*
X156039Y180437D01*
X156075Y180353D01*
X156101Y180321D01*
X156112Y180301D01*
X156135Y180278D01*
X156180Y180222D01*
X156483Y179919D01*
X156483Y178562D01*
X156486Y178542D01*
X156484Y178523D01*
X156506Y178421D01*
X156522Y178319D01*
X156532Y178302D01*
X156536Y178282D01*
X156589Y178193D01*
X156638Y178102D01*
X156652Y178088D01*
X156662Y178071D01*
X156741Y178004D01*
X156816Y177933D01*
X156834Y177924D01*
X156849Y177911D01*
X156945Y177872D01*
X157039Y177829D01*
X157059Y177827D01*
X157077Y177819D01*
X157244Y177801D01*
X157481Y177801D01*
X157481Y177799D01*
X157244Y177799D01*
X157224Y177796D01*
X157205Y177798D01*
X157103Y177776D01*
X157001Y177759D01*
X156984Y177750D01*
X156964Y177746D01*
X156875Y177693D01*
X156784Y177644D01*
X156770Y177630D01*
X156753Y177620D01*
X156686Y177541D01*
X156614Y177466D01*
X156606Y177448D01*
X156593Y177433D01*
X156554Y177337D01*
X156511Y177243D01*
X156509Y177223D01*
X156501Y177205D01*
X156483Y177038D01*
X156483Y175681D01*
X156180Y175378D01*
X156127Y175304D01*
X156067Y175234D01*
X156055Y175204D01*
X156036Y175178D01*
X156009Y175091D01*
X155975Y175006D01*
X155971Y174965D01*
X155964Y174943D01*
X155965Y174911D01*
X155957Y174839D01*
X155957Y168909D01*
X153971Y168909D01*
X153324Y169082D01*
X152745Y169417D01*
X152592Y169570D01*
X152576Y169582D01*
X152563Y169597D01*
X152476Y169653D01*
X152392Y169714D01*
X152373Y169719D01*
X152356Y169730D01*
X152256Y169755D01*
X152157Y169786D01*
X152137Y169785D01*
X152118Y169790D01*
X152015Y169782D01*
X151911Y169780D01*
X151892Y169773D01*
X151872Y169771D01*
X151777Y169731D01*
X151680Y169695D01*
X151665Y169683D01*
X151646Y169675D01*
X151515Y169570D01*
X151344Y169399D01*
X143296Y169399D01*
X142094Y170601D01*
X142094Y174226D01*
X142091Y174246D01*
X142093Y174265D01*
X142071Y174367D01*
X142055Y174469D01*
X142045Y174486D01*
X142041Y174506D01*
X141988Y174595D01*
X141939Y174686D01*
X141925Y174700D01*
X141915Y174717D01*
X141836Y174784D01*
X141761Y174856D01*
X141743Y174864D01*
X141728Y174877D01*
X141632Y174916D01*
X141538Y174959D01*
X141518Y174961D01*
X141500Y174969D01*
X141333Y174987D01*
X129615Y174987D01*
X129501Y174968D01*
X129384Y174951D01*
X129379Y174949D01*
X129373Y174948D01*
X129270Y174893D01*
X129165Y174840D01*
X129161Y174835D01*
X129155Y174832D01*
X129075Y174748D01*
X128993Y174664D01*
X128989Y174658D01*
X128986Y174654D01*
X128978Y174637D01*
X128912Y174517D01*
X128241Y172897D01*
X125807Y170463D01*
X122626Y169145D01*
X114300Y169145D01*
X114280Y169142D01*
X114261Y169144D01*
X114159Y169122D01*
X114057Y169106D01*
X114040Y169096D01*
X114020Y169092D01*
X113931Y169039D01*
X113840Y168990D01*
X113826Y168976D01*
X113809Y168966D01*
X113742Y168887D01*
X113671Y168812D01*
X113662Y168794D01*
X113649Y168779D01*
X113610Y168683D01*
X113567Y168589D01*
X113565Y168569D01*
X113557Y168551D01*
X113539Y168384D01*
X113539Y161816D01*
X113542Y161796D01*
X113540Y161777D01*
X113562Y161675D01*
X113579Y161573D01*
X113588Y161556D01*
X113592Y161536D01*
X113645Y161447D01*
X113694Y161356D01*
X113708Y161342D01*
X113718Y161325D01*
X113797Y161258D01*
X113872Y161186D01*
X113890Y161178D01*
X113905Y161165D01*
X114001Y161126D01*
X114095Y161083D01*
X114115Y161081D01*
X114133Y161073D01*
X114300Y161055D01*
X122626Y161055D01*
X125807Y159737D01*
X128241Y157303D01*
X128912Y155683D01*
X128974Y155583D01*
X129034Y155483D01*
X129038Y155479D01*
X129042Y155474D01*
X129132Y155399D01*
X129221Y155323D01*
X129226Y155321D01*
X129231Y155317D01*
X129340Y155275D01*
X129449Y155231D01*
X129456Y155230D01*
X129461Y155229D01*
X129479Y155228D01*
X129615Y155213D01*
X141333Y155213D01*
X141353Y155216D01*
X141372Y155214D01*
X141474Y155236D01*
X141576Y155252D01*
X141593Y155262D01*
X141613Y155266D01*
X141702Y155319D01*
X141793Y155368D01*
X141807Y155382D01*
X141824Y155392D01*
X141891Y155471D01*
X141963Y155546D01*
X141971Y155564D01*
X141984Y155579D01*
X142023Y155675D01*
X142066Y155769D01*
X142068Y155789D01*
X142076Y155807D01*
X142094Y155974D01*
X142094Y159599D01*
X143296Y160801D01*
X151344Y160801D01*
X151515Y160630D01*
X151531Y160618D01*
X151544Y160603D01*
X151631Y160547D01*
X151715Y160486D01*
X151734Y160481D01*
X151751Y160470D01*
X151851Y160445D01*
X151950Y160414D01*
X151970Y160415D01*
X151989Y160410D01*
X152092Y160418D01*
X152196Y160420D01*
X152215Y160427D01*
X152235Y160429D01*
X152330Y160469D01*
X152427Y160505D01*
X152442Y160517D01*
X152461Y160525D01*
X152592Y160630D01*
X152745Y160783D01*
X153324Y161118D01*
X153971Y161291D01*
X155957Y161291D01*
X155957Y155361D01*
X155972Y155271D01*
X155979Y155180D01*
X155991Y155150D01*
X155997Y155118D01*
X156039Y155037D01*
X156075Y154953D01*
X156101Y154921D01*
X156112Y154901D01*
X156135Y154878D01*
X156180Y154822D01*
X156483Y154519D01*
X156483Y153162D01*
X156486Y153142D01*
X156484Y153123D01*
X156506Y153021D01*
X156522Y152919D01*
X156532Y152902D01*
X156536Y152882D01*
X156589Y152793D01*
X156638Y152702D01*
X156652Y152688D01*
X156662Y152671D01*
X156741Y152604D01*
X156816Y152533D01*
X156834Y152524D01*
X156849Y152511D01*
X156945Y152472D01*
X157039Y152429D01*
X157059Y152427D01*
X157077Y152419D01*
X157244Y152401D01*
X157481Y152401D01*
X157481Y152399D01*
X157244Y152399D01*
X157224Y152396D01*
X157205Y152398D01*
X157103Y152376D01*
X157001Y152359D01*
X156984Y152350D01*
X156964Y152346D01*
X156875Y152293D01*
X156784Y152244D01*
X156770Y152230D01*
X156753Y152220D01*
X156686Y152141D01*
X156614Y152066D01*
X156606Y152048D01*
X156593Y152033D01*
X156554Y151937D01*
X156511Y151843D01*
X156509Y151823D01*
X156501Y151805D01*
X156483Y151638D01*
X156483Y150281D01*
X156180Y149978D01*
X156127Y149904D01*
X156067Y149834D01*
X156055Y149804D01*
X156036Y149778D01*
X156009Y149691D01*
X155975Y149606D01*
X155971Y149565D01*
X155964Y149543D01*
X155965Y149511D01*
X155957Y149439D01*
X155957Y143509D01*
X153971Y143509D01*
X153324Y143682D01*
X152745Y144017D01*
X152592Y144170D01*
X152576Y144182D01*
X152563Y144197D01*
X152476Y144253D01*
X152392Y144314D01*
X152373Y144319D01*
X152356Y144330D01*
X152256Y144355D01*
X152157Y144386D01*
X152137Y144385D01*
X152118Y144390D01*
X152015Y144382D01*
X151911Y144380D01*
X151892Y144373D01*
X151872Y144371D01*
X151777Y144331D01*
X151680Y144295D01*
X151665Y144283D01*
X151646Y144275D01*
X151515Y144170D01*
X151344Y143999D01*
X143296Y143999D01*
X142094Y145201D01*
X142094Y148826D01*
X142091Y148846D01*
X142093Y148865D01*
X142071Y148967D01*
X142055Y149069D01*
X142045Y149086D01*
X142041Y149106D01*
X141988Y149195D01*
X141939Y149286D01*
X141925Y149300D01*
X141915Y149317D01*
X141836Y149384D01*
X141761Y149456D01*
X141743Y149464D01*
X141728Y149477D01*
X141632Y149516D01*
X141538Y149559D01*
X141518Y149561D01*
X141500Y149569D01*
X141333Y149587D01*
X129615Y149587D01*
X129501Y149568D01*
X129384Y149551D01*
X129379Y149549D01*
X129373Y149548D01*
X129270Y149493D01*
X129165Y149440D01*
X129161Y149435D01*
X129155Y149432D01*
X129075Y149348D01*
X128993Y149264D01*
X128989Y149258D01*
X128986Y149254D01*
X128978Y149237D01*
X128912Y149117D01*
X128241Y147497D01*
X125807Y145063D01*
X122626Y143745D01*
X114300Y143745D01*
X114280Y143742D01*
X114261Y143744D01*
X114159Y143722D01*
X114057Y143706D01*
X114040Y143696D01*
X114020Y143692D01*
X113931Y143639D01*
X113840Y143590D01*
X113826Y143576D01*
X113809Y143566D01*
X113742Y143487D01*
X113671Y143412D01*
X113662Y143394D01*
X113649Y143379D01*
X113610Y143283D01*
X113567Y143189D01*
X113565Y143169D01*
X113557Y143151D01*
X113539Y142984D01*
X113539Y136416D01*
X113542Y136396D01*
X113540Y136377D01*
X113562Y136275D01*
X113579Y136173D01*
X113588Y136156D01*
X113592Y136136D01*
X113645Y136047D01*
X113694Y135956D01*
X113708Y135942D01*
X113718Y135925D01*
X113797Y135858D01*
X113872Y135786D01*
X113890Y135778D01*
X113905Y135765D01*
X114001Y135726D01*
X114095Y135683D01*
X114115Y135681D01*
X114133Y135673D01*
X114300Y135655D01*
X122626Y135655D01*
X125807Y134337D01*
X128241Y131903D01*
X128912Y130283D01*
X128974Y130183D01*
X129034Y130083D01*
X129038Y130079D01*
X129042Y130074D01*
X129132Y129999D01*
X129221Y129923D01*
X129226Y129921D01*
X129231Y129917D01*
X129340Y129875D01*
X129449Y129831D01*
X129456Y129830D01*
X129461Y129829D01*
X129479Y129828D01*
X129615Y129813D01*
X141333Y129813D01*
X141353Y129816D01*
X141372Y129814D01*
X141474Y129836D01*
X141576Y129852D01*
X141593Y129862D01*
X141613Y129866D01*
X141702Y129919D01*
X141793Y129968D01*
X141807Y129982D01*
X141824Y129992D01*
X141891Y130071D01*
X141963Y130146D01*
X141971Y130164D01*
X141984Y130179D01*
X142023Y130275D01*
X142066Y130369D01*
X142068Y130389D01*
X142076Y130407D01*
X142094Y130574D01*
X142094Y134199D01*
X143296Y135401D01*
X151344Y135401D01*
X151515Y135230D01*
X151531Y135218D01*
X151544Y135203D01*
X151631Y135147D01*
X151715Y135086D01*
X151734Y135081D01*
X151751Y135070D01*
X151851Y135045D01*
X151950Y135014D01*
X151970Y135015D01*
X151989Y135010D01*
X152092Y135018D01*
X152196Y135020D01*
X152215Y135027D01*
X152235Y135029D01*
X152330Y135069D01*
X152427Y135105D01*
X152442Y135117D01*
X152461Y135125D01*
X152592Y135230D01*
X152745Y135383D01*
X153324Y135718D01*
X153971Y135891D01*
X155957Y135891D01*
X155957Y129961D01*
X155972Y129871D01*
X155979Y129780D01*
X155991Y129750D01*
X155997Y129718D01*
X156039Y129637D01*
X156075Y129553D01*
X156101Y129521D01*
X156112Y129501D01*
X156135Y129478D01*
X156180Y129422D01*
X156483Y129119D01*
X156483Y127762D01*
X156486Y127742D01*
X156484Y127723D01*
X156506Y127621D01*
X156522Y127519D01*
X156532Y127502D01*
X156536Y127482D01*
X156589Y127393D01*
X156638Y127302D01*
X156652Y127288D01*
X156662Y127271D01*
X156741Y127204D01*
X156816Y127133D01*
X156834Y127124D01*
X156849Y127111D01*
X156945Y127072D01*
X157039Y127029D01*
X157059Y127027D01*
X157077Y127019D01*
X157244Y127001D01*
X157481Y127001D01*
X157481Y126999D01*
X157244Y126999D01*
X157224Y126996D01*
X157205Y126998D01*
X157103Y126976D01*
X157001Y126959D01*
X156984Y126950D01*
X156964Y126946D01*
X156875Y126893D01*
X156784Y126844D01*
X156770Y126830D01*
X156753Y126820D01*
X156686Y126741D01*
X156614Y126666D01*
X156606Y126648D01*
X156593Y126633D01*
X156554Y126537D01*
X156511Y126443D01*
X156509Y126423D01*
X156501Y126405D01*
X156483Y126238D01*
X156483Y124881D01*
X156180Y124578D01*
X156131Y124510D01*
X156130Y124509D01*
X156129Y124508D01*
X156127Y124504D01*
X156067Y124434D01*
X156055Y124404D01*
X156036Y124378D01*
X156009Y124291D01*
X155975Y124206D01*
X155971Y124165D01*
X155964Y124143D01*
X155965Y124111D01*
X155957Y124039D01*
X155957Y118109D01*
X153971Y118109D01*
X153324Y118282D01*
X152745Y118617D01*
X152592Y118770D01*
X152576Y118782D01*
X152563Y118797D01*
X152476Y118853D01*
X152392Y118914D01*
X152373Y118919D01*
X152356Y118930D01*
X152256Y118955D01*
X152157Y118986D01*
X152137Y118985D01*
X152118Y118990D01*
X152015Y118982D01*
X151911Y118980D01*
X151892Y118973D01*
X151872Y118971D01*
X151777Y118931D01*
X151680Y118895D01*
X151665Y118883D01*
X151646Y118875D01*
X151515Y118770D01*
X151344Y118599D01*
X143296Y118599D01*
X142094Y119801D01*
X142094Y123426D01*
X142091Y123446D01*
X142093Y123465D01*
X142071Y123567D01*
X142055Y123669D01*
X142045Y123686D01*
X142041Y123706D01*
X141988Y123795D01*
X141939Y123886D01*
X141925Y123900D01*
X141915Y123917D01*
X141836Y123984D01*
X141761Y124056D01*
X141743Y124064D01*
X141728Y124077D01*
X141632Y124116D01*
X141538Y124159D01*
X141518Y124161D01*
X141500Y124169D01*
X141333Y124187D01*
X129615Y124187D01*
X129501Y124168D01*
X129384Y124151D01*
X129379Y124149D01*
X129373Y124148D01*
X129270Y124093D01*
X129165Y124040D01*
X129161Y124035D01*
X129155Y124032D01*
X129075Y123948D01*
X128993Y123864D01*
X128989Y123858D01*
X128986Y123854D01*
X128978Y123837D01*
X128912Y123717D01*
X128241Y122097D01*
X125807Y119663D01*
X122626Y118345D01*
X114300Y118345D01*
X114280Y118342D01*
X114261Y118344D01*
X114159Y118322D01*
X114057Y118306D01*
X114040Y118296D01*
X114020Y118292D01*
X113931Y118239D01*
X113840Y118190D01*
X113826Y118176D01*
X113809Y118166D01*
X113742Y118087D01*
X113671Y118012D01*
X113662Y117994D01*
X113649Y117979D01*
X113610Y117883D01*
X113567Y117789D01*
X113565Y117769D01*
X113557Y117751D01*
X113539Y117584D01*
X113539Y36316D01*
X113542Y36297D01*
X113540Y36277D01*
X113562Y36176D01*
X113579Y36074D01*
X113588Y36056D01*
X113592Y36037D01*
X113645Y35948D01*
X113694Y35856D01*
X113708Y35843D01*
X113718Y35825D01*
X113797Y35758D01*
X113872Y35687D01*
X113890Y35679D01*
X113905Y35666D01*
X114001Y35627D01*
X114095Y35583D01*
X114115Y35581D01*
X114133Y35574D01*
X114300Y35555D01*
X238029Y35555D01*
X238100Y35567D01*
X238172Y35569D01*
X238221Y35587D01*
X238272Y35595D01*
X238335Y35628D01*
X238403Y35653D01*
X238443Y35686D01*
X238489Y35710D01*
X238539Y35762D01*
X238595Y35807D01*
X238623Y35851D01*
X238659Y35888D01*
X238689Y35953D01*
X238728Y36014D01*
X238740Y36064D01*
X238762Y36111D01*
X238770Y36183D01*
X238788Y36252D01*
X238784Y36304D01*
X238789Y36356D01*
X238774Y36426D01*
X238769Y36497D01*
X238748Y36545D01*
X238737Y36596D01*
X238700Y36658D01*
X238672Y36724D01*
X238628Y36780D01*
X238611Y36807D01*
X238593Y36823D01*
X238567Y36855D01*
X238487Y36935D01*
X238487Y46860D01*
X238476Y46931D01*
X238474Y47003D01*
X238456Y47052D01*
X238448Y47103D01*
X238414Y47166D01*
X238389Y47234D01*
X238357Y47274D01*
X238332Y47320D01*
X238280Y47370D01*
X238236Y47426D01*
X238192Y47454D01*
X238154Y47490D01*
X238089Y47520D01*
X238029Y47559D01*
X237978Y47572D01*
X237931Y47593D01*
X237860Y47601D01*
X237790Y47619D01*
X237738Y47615D01*
X237687Y47621D01*
X237616Y47605D01*
X237545Y47600D01*
X237497Y47579D01*
X237446Y47568D01*
X237385Y47531D01*
X237319Y47503D01*
X237263Y47459D01*
X237235Y47442D01*
X237220Y47424D01*
X237188Y47399D01*
X232158Y42369D01*
X225042Y42369D01*
X220009Y47402D01*
X220009Y54518D01*
X225042Y59551D01*
X232158Y59551D01*
X237188Y54521D01*
X237246Y54480D01*
X237298Y54430D01*
X237345Y54408D01*
X237387Y54378D01*
X237456Y54357D01*
X237521Y54327D01*
X237573Y54321D01*
X237623Y54305D01*
X237694Y54307D01*
X237765Y54299D01*
X237816Y54310D01*
X237868Y54312D01*
X237936Y54336D01*
X238006Y54352D01*
X238051Y54378D01*
X238099Y54396D01*
X238155Y54441D01*
X238217Y54478D01*
X238251Y54517D01*
X238291Y54550D01*
X238330Y54610D01*
X238377Y54665D01*
X238396Y54713D01*
X238424Y54757D01*
X238442Y54826D01*
X238469Y54893D01*
X238477Y54964D01*
X238485Y54995D01*
X238483Y55019D01*
X238487Y55060D01*
X238487Y72100D01*
X238476Y72171D01*
X238474Y72243D01*
X238456Y72292D01*
X238448Y72343D01*
X238414Y72406D01*
X238389Y72474D01*
X238357Y72514D01*
X238332Y72560D01*
X238280Y72610D01*
X238236Y72666D01*
X238192Y72694D01*
X238154Y72730D01*
X238089Y72760D01*
X238029Y72799D01*
X237978Y72812D01*
X237931Y72833D01*
X237860Y72841D01*
X237790Y72859D01*
X237738Y72855D01*
X237687Y72861D01*
X237616Y72845D01*
X237545Y72840D01*
X237497Y72819D01*
X237446Y72808D01*
X237385Y72771D01*
X237319Y72743D01*
X237263Y72699D01*
X237235Y72682D01*
X237220Y72664D01*
X237188Y72639D01*
X232158Y67609D01*
X225042Y67609D01*
X220009Y72642D01*
X220009Y79758D01*
X225042Y84791D01*
X232158Y84791D01*
X237188Y79761D01*
X237246Y79720D01*
X237298Y79670D01*
X237345Y79648D01*
X237387Y79618D01*
X237456Y79597D01*
X237521Y79567D01*
X237573Y79561D01*
X237623Y79545D01*
X237694Y79547D01*
X237765Y79539D01*
X237816Y79550D01*
X237868Y79552D01*
X237936Y79576D01*
X238006Y79592D01*
X238051Y79618D01*
X238099Y79636D01*
X238155Y79681D01*
X238217Y79718D01*
X238251Y79757D01*
X238291Y79790D01*
X238330Y79850D01*
X238377Y79905D01*
X238396Y79953D01*
X238424Y79997D01*
X238442Y80066D01*
X238469Y80133D01*
X238477Y80204D01*
X238485Y80235D01*
X238483Y80259D01*
X238487Y80300D01*
X238487Y190455D01*
X238473Y190545D01*
X238465Y190636D01*
X238453Y190666D01*
X238448Y190698D01*
X238405Y190779D01*
X238369Y190863D01*
X238343Y190895D01*
X238332Y190916D01*
X238309Y190938D01*
X238264Y190994D01*
X237941Y191317D01*
X236709Y194291D01*
X236709Y197509D01*
X237941Y200483D01*
X240217Y202759D01*
X241517Y203298D01*
X241617Y203360D01*
X241717Y203419D01*
X241721Y203424D01*
X241726Y203427D01*
X241801Y203518D01*
X241877Y203606D01*
X241879Y203612D01*
X241883Y203617D01*
X241925Y203725D01*
X241949Y203786D01*
X241959Y203807D01*
X241960Y203811D01*
X241969Y203834D01*
X241970Y203842D01*
X241971Y203846D01*
X241972Y203865D01*
X241987Y204001D01*
X241987Y207865D01*
X252835Y218713D01*
X308084Y218713D01*
X308104Y218716D01*
X308123Y218714D01*
X308225Y218736D01*
X308327Y218752D01*
X308344Y218762D01*
X308364Y218766D01*
X308453Y218819D01*
X308544Y218868D01*
X308558Y218882D01*
X308575Y218892D01*
X308642Y218971D01*
X308714Y219046D01*
X308722Y219064D01*
X308735Y219079D01*
X308774Y219175D01*
X308817Y219269D01*
X308819Y219289D01*
X308827Y219307D01*
X308845Y219474D01*
X308845Y219485D01*
X313915Y224555D01*
X321085Y224555D01*
X326155Y219485D01*
X326155Y219474D01*
X326158Y219454D01*
X326156Y219435D01*
X326178Y219333D01*
X326194Y219231D01*
X326204Y219214D01*
X326208Y219194D01*
X326261Y219105D01*
X326310Y219014D01*
X326324Y219000D01*
X326334Y218983D01*
X326413Y218916D01*
X326488Y218844D01*
X326506Y218836D01*
X326521Y218823D01*
X326617Y218784D01*
X326711Y218741D01*
X326731Y218739D01*
X326749Y218731D01*
X326916Y218713D01*
X379520Y218713D01*
X379610Y218727D01*
X379701Y218735D01*
X379730Y218747D01*
X379762Y218752D01*
X379843Y218795D01*
X379927Y218831D01*
X379959Y218857D01*
X379980Y218868D01*
X380002Y218891D01*
X380058Y218936D01*
X390664Y229542D01*
X390717Y229616D01*
X390777Y229686D01*
X390789Y229716D01*
X390808Y229742D01*
X390835Y229829D01*
X390869Y229914D01*
X390873Y229955D01*
X390880Y229977D01*
X390879Y230009D01*
X390887Y230080D01*
X390887Y250060D01*
X390876Y250131D01*
X390874Y250203D01*
X390856Y250252D01*
X390848Y250303D01*
X390814Y250366D01*
X390789Y250434D01*
X390757Y250474D01*
X390732Y250520D01*
X390680Y250570D01*
X390636Y250626D01*
X390592Y250654D01*
X390554Y250690D01*
X390489Y250720D01*
X390429Y250759D01*
X390378Y250772D01*
X390331Y250793D01*
X390260Y250801D01*
X390190Y250819D01*
X390138Y250815D01*
X390087Y250821D01*
X390016Y250805D01*
X389945Y250800D01*
X389897Y250779D01*
X389846Y250768D01*
X389785Y250731D01*
X389719Y250703D01*
X389663Y250659D01*
X389635Y250642D01*
X389620Y250624D01*
X389588Y250599D01*
X384558Y245569D01*
X377442Y245569D01*
X372409Y250602D01*
X372409Y257718D01*
X377445Y262754D01*
X377446Y262754D01*
X377465Y262752D01*
X377567Y262774D01*
X377669Y262790D01*
X377686Y262800D01*
X377706Y262804D01*
X377795Y262857D01*
X377886Y262906D01*
X377900Y262920D01*
X377917Y262930D01*
X377984Y263009D01*
X378056Y263084D01*
X378064Y263102D01*
X378077Y263117D01*
X378116Y263213D01*
X378159Y263307D01*
X378161Y263327D01*
X378169Y263345D01*
X378187Y263512D01*
X378187Y277920D01*
X378173Y278010D01*
X378165Y278101D01*
X378153Y278130D01*
X378148Y278162D01*
X378105Y278243D01*
X378069Y278327D01*
X378043Y278359D01*
X378032Y278380D01*
X378009Y278402D01*
X377964Y278458D01*
X370311Y286111D01*
X370217Y286179D01*
X370122Y286249D01*
X370116Y286251D01*
X370111Y286255D01*
X370000Y286289D01*
X369889Y286325D01*
X369882Y286325D01*
X369876Y286327D01*
X369760Y286324D01*
X369643Y286323D01*
X369635Y286321D01*
X369630Y286321D01*
X369613Y286314D01*
X369481Y286276D01*
X369460Y286267D01*
X367140Y286267D01*
X364996Y287155D01*
X363355Y288796D01*
X362467Y290940D01*
X362467Y293260D01*
X363355Y295404D01*
X364996Y297045D01*
X367140Y297933D01*
X369460Y297933D01*
X371604Y297045D01*
X373245Y295404D01*
X374133Y293260D01*
X374133Y290940D01*
X374124Y290919D01*
X374097Y290805D01*
X374069Y290691D01*
X374069Y290685D01*
X374068Y290679D01*
X374079Y290563D01*
X374088Y290446D01*
X374090Y290440D01*
X374091Y290434D01*
X374139Y290327D01*
X374184Y290220D01*
X374189Y290214D01*
X374191Y290209D01*
X374204Y290196D01*
X374289Y290089D01*
X383813Y280565D01*
X383813Y263512D01*
X383816Y263492D01*
X383814Y263473D01*
X383836Y263371D01*
X383852Y263269D01*
X383862Y263252D01*
X383866Y263232D01*
X383919Y263143D01*
X383968Y263052D01*
X383982Y263038D01*
X383992Y263021D01*
X384071Y262954D01*
X384146Y262882D01*
X384164Y262874D01*
X384179Y262861D01*
X384275Y262822D01*
X384369Y262779D01*
X384389Y262777D01*
X384407Y262769D01*
X384556Y262753D01*
X389588Y257721D01*
X389646Y257680D01*
X389698Y257630D01*
X389745Y257608D01*
X389787Y257578D01*
X389856Y257557D01*
X389921Y257527D01*
X389973Y257521D01*
X390023Y257505D01*
X390094Y257507D01*
X390165Y257499D01*
X390216Y257510D01*
X390268Y257512D01*
X390336Y257536D01*
X390406Y257552D01*
X390451Y257578D01*
X390499Y257596D01*
X390555Y257641D01*
X390617Y257678D01*
X390651Y257717D01*
X390691Y257750D01*
X390730Y257810D01*
X390777Y257865D01*
X390796Y257913D01*
X390824Y257957D01*
X390842Y258026D01*
X390869Y258093D01*
X390877Y258164D01*
X390885Y258195D01*
X390883Y258219D01*
X390887Y258260D01*
X390887Y293265D01*
X392758Y295136D01*
X397798Y300176D01*
X397810Y300192D01*
X397825Y300205D01*
X397856Y300252D01*
X397866Y300263D01*
X397874Y300281D01*
X397882Y300292D01*
X397942Y300376D01*
X397948Y300395D01*
X397958Y300412D01*
X397984Y300512D01*
X398014Y300611D01*
X398014Y300631D01*
X398019Y300650D01*
X398010Y300753D01*
X398008Y300857D01*
X398001Y300876D01*
X397999Y300895D01*
X397959Y300990D01*
X397923Y301088D01*
X397911Y301103D01*
X397903Y301122D01*
X397809Y301239D01*
X397809Y308358D01*
X402842Y313391D01*
X409958Y313391D01*
X414991Y308358D01*
X414991Y301242D01*
X409958Y296209D01*
X402837Y296209D01*
X402836Y296210D01*
X402824Y296225D01*
X402737Y296282D01*
X402653Y296342D01*
X402634Y296348D01*
X402617Y296358D01*
X402517Y296384D01*
X402418Y296414D01*
X402398Y296414D01*
X402379Y296419D01*
X402276Y296410D01*
X402172Y296408D01*
X402153Y296401D01*
X402133Y296399D01*
X402039Y296359D01*
X401941Y296323D01*
X401925Y296311D01*
X401907Y296303D01*
X401776Y296198D01*
X396736Y291158D01*
X396683Y291084D01*
X396623Y291014D01*
X396611Y290984D01*
X396592Y290958D01*
X396565Y290871D01*
X396531Y290786D01*
X396527Y290745D01*
X396520Y290723D01*
X396521Y290691D01*
X396513Y290620D01*
X396513Y258953D01*
X396524Y258882D01*
X396526Y258810D01*
X396544Y258761D01*
X396552Y258710D01*
X396586Y258647D01*
X396611Y258579D01*
X396643Y258539D01*
X396668Y258492D01*
X396720Y258443D01*
X396764Y258387D01*
X396808Y258359D01*
X396846Y258323D01*
X396911Y258293D01*
X396971Y258254D01*
X397022Y258241D01*
X397069Y258219D01*
X397140Y258212D01*
X397210Y258194D01*
X397262Y258198D01*
X397313Y258192D01*
X397384Y258208D01*
X397455Y258213D01*
X397503Y258234D01*
X397554Y258245D01*
X397615Y258281D01*
X397681Y258310D01*
X397737Y258354D01*
X397765Y258371D01*
X397780Y258389D01*
X397812Y258414D01*
X402639Y263241D01*
X404877Y263241D01*
X404877Y254922D01*
X404880Y254902D01*
X404878Y254883D01*
X404900Y254781D01*
X404917Y254679D01*
X404926Y254662D01*
X404930Y254642D01*
X404983Y254553D01*
X405032Y254462D01*
X405046Y254448D01*
X405056Y254431D01*
X405135Y254364D01*
X405210Y254293D01*
X405228Y254284D01*
X405243Y254271D01*
X405339Y254233D01*
X405433Y254189D01*
X405453Y254187D01*
X405471Y254179D01*
X405638Y254161D01*
X406401Y254161D01*
X406401Y254159D01*
X405638Y254159D01*
X405618Y254156D01*
X405599Y254158D01*
X405497Y254136D01*
X405395Y254119D01*
X405378Y254110D01*
X405358Y254106D01*
X405269Y254053D01*
X405178Y254004D01*
X405164Y253990D01*
X405147Y253980D01*
X405080Y253901D01*
X405009Y253826D01*
X405000Y253808D01*
X404987Y253793D01*
X404948Y253697D01*
X404905Y253603D01*
X404903Y253583D01*
X404895Y253565D01*
X404877Y253398D01*
X404877Y245079D01*
X402639Y245079D01*
X397812Y249906D01*
X397754Y249948D01*
X397702Y249997D01*
X397655Y250019D01*
X397613Y250049D01*
X397544Y250070D01*
X397479Y250101D01*
X397427Y250106D01*
X397377Y250122D01*
X397306Y250120D01*
X397235Y250128D01*
X397184Y250117D01*
X397132Y250115D01*
X397064Y250091D01*
X396994Y250075D01*
X396949Y250049D01*
X396901Y250031D01*
X396845Y249986D01*
X396783Y249949D01*
X396749Y249910D01*
X396709Y249877D01*
X396670Y249817D01*
X396623Y249762D01*
X396604Y249714D01*
X396576Y249670D01*
X396558Y249601D01*
X396531Y249534D01*
X396523Y249463D01*
X396515Y249432D01*
X396517Y249408D01*
X396513Y249367D01*
X396513Y227435D01*
X382165Y213087D01*
X326916Y213087D01*
X326896Y213084D01*
X326877Y213086D01*
X326775Y213064D01*
X326673Y213048D01*
X326656Y213038D01*
X326636Y213034D01*
X326547Y212981D01*
X326456Y212932D01*
X326442Y212918D01*
X326425Y212908D01*
X326358Y212829D01*
X326286Y212754D01*
X326278Y212736D01*
X326265Y212721D01*
X326226Y212625D01*
X326183Y212531D01*
X326181Y212511D01*
X326173Y212493D01*
X326155Y212326D01*
X326155Y212315D01*
X321085Y207245D01*
X313915Y207245D01*
X308845Y212315D01*
X308845Y212326D01*
X308842Y212346D01*
X308844Y212365D01*
X308822Y212467D01*
X308806Y212569D01*
X308796Y212586D01*
X308792Y212606D01*
X308739Y212695D01*
X308690Y212786D01*
X308676Y212800D01*
X308666Y212817D01*
X308587Y212884D01*
X308512Y212956D01*
X308494Y212964D01*
X308479Y212977D01*
X308383Y213016D01*
X308289Y213059D01*
X308269Y213061D01*
X308251Y213069D01*
X308084Y213087D01*
X255480Y213087D01*
X255390Y213073D01*
X255299Y213065D01*
X255270Y213053D01*
X255238Y213048D01*
X255157Y213005D01*
X255073Y212969D01*
X255041Y212943D01*
X255020Y212932D01*
X254998Y212909D01*
X254942Y212864D01*
X247836Y205758D01*
X247783Y205684D01*
X247723Y205614D01*
X247711Y205584D01*
X247692Y205558D01*
X247665Y205471D01*
X247631Y205386D01*
X247627Y205345D01*
X247620Y205323D01*
X247621Y205291D01*
X247613Y205220D01*
X247613Y204001D01*
X247615Y203986D01*
X247614Y203973D01*
X247628Y203905D01*
X247632Y203886D01*
X247649Y203770D01*
X247651Y203764D01*
X247652Y203758D01*
X247666Y203733D01*
X247666Y203732D01*
X247668Y203730D01*
X247707Y203656D01*
X247760Y203551D01*
X247765Y203546D01*
X247768Y203541D01*
X247852Y203461D01*
X247936Y203378D01*
X247942Y203375D01*
X247946Y203371D01*
X247963Y203364D01*
X248083Y203298D01*
X249383Y202759D01*
X251533Y200609D01*
X251609Y200554D01*
X251681Y200494D01*
X251709Y200483D01*
X251732Y200466D01*
X251822Y200438D01*
X251910Y200404D01*
X251939Y200402D01*
X251967Y200394D01*
X252062Y200396D01*
X252156Y200391D01*
X252184Y200399D01*
X252213Y200400D01*
X252302Y200432D01*
X252393Y200458D01*
X252417Y200474D01*
X252444Y200484D01*
X252518Y200543D01*
X252596Y200596D01*
X252620Y200625D01*
X252636Y200638D01*
X252654Y200666D01*
X252704Y200725D01*
X253135Y201370D01*
X254330Y202565D01*
X255735Y203504D01*
X257297Y204151D01*
X258277Y204346D01*
X258277Y196662D01*
X258280Y196642D01*
X258278Y196623D01*
X258300Y196521D01*
X258317Y196419D01*
X258326Y196402D01*
X258330Y196382D01*
X258383Y196293D01*
X258432Y196202D01*
X258446Y196188D01*
X258456Y196171D01*
X258535Y196104D01*
X258610Y196033D01*
X258628Y196024D01*
X258643Y196011D01*
X258739Y195973D01*
X258833Y195929D01*
X258853Y195927D01*
X258871Y195919D01*
X259038Y195901D01*
X260562Y195901D01*
X260582Y195904D01*
X260601Y195902D01*
X260703Y195924D01*
X260805Y195941D01*
X260822Y195950D01*
X260842Y195954D01*
X260931Y196007D01*
X261022Y196056D01*
X261036Y196070D01*
X261053Y196080D01*
X261120Y196159D01*
X261191Y196234D01*
X261200Y196252D01*
X261213Y196267D01*
X261252Y196363D01*
X261295Y196457D01*
X261297Y196477D01*
X261305Y196495D01*
X261323Y196662D01*
X261323Y204346D01*
X262303Y204151D01*
X263865Y203504D01*
X265270Y202565D01*
X266465Y201370D01*
X266896Y200725D01*
X266961Y200656D01*
X267019Y200582D01*
X267044Y200566D01*
X267064Y200545D01*
X267147Y200500D01*
X267226Y200449D01*
X267255Y200442D01*
X267281Y200428D01*
X267373Y200412D01*
X267465Y200389D01*
X267494Y200391D01*
X267523Y200386D01*
X267616Y200401D01*
X267710Y200408D01*
X267737Y200420D01*
X267766Y200424D01*
X267850Y200468D01*
X267936Y200505D01*
X267965Y200528D01*
X267984Y200538D01*
X268007Y200561D01*
X268067Y200609D01*
X270217Y202759D01*
X273191Y203991D01*
X276409Y203991D01*
X279383Y202759D01*
X281762Y200380D01*
X281778Y200369D01*
X281790Y200353D01*
X281878Y200297D01*
X281961Y200237D01*
X281980Y200231D01*
X281997Y200220D01*
X282098Y200195D01*
X282197Y200164D01*
X282216Y200165D01*
X282236Y200160D01*
X282339Y200168D01*
X282442Y200171D01*
X282461Y200178D01*
X282481Y200179D01*
X282576Y200220D01*
X282673Y200255D01*
X282689Y200268D01*
X282707Y200276D01*
X282838Y200380D01*
X285217Y202759D01*
X288191Y203991D01*
X291409Y203991D01*
X294383Y202759D01*
X296659Y200483D01*
X297891Y197509D01*
X297891Y194291D01*
X296659Y191317D01*
X294383Y189041D01*
X291409Y187809D01*
X288191Y187809D01*
X285217Y189041D01*
X282838Y191420D01*
X282822Y191431D01*
X282810Y191447D01*
X282722Y191503D01*
X282639Y191563D01*
X282620Y191569D01*
X282603Y191580D01*
X282502Y191605D01*
X282403Y191636D01*
X282384Y191635D01*
X282364Y191640D01*
X282261Y191632D01*
X282158Y191629D01*
X282139Y191622D01*
X282119Y191621D01*
X282024Y191580D01*
X281927Y191545D01*
X281911Y191532D01*
X281893Y191524D01*
X281762Y191420D01*
X279383Y189041D01*
X276409Y187809D01*
X273191Y187809D01*
X270217Y189041D01*
X268067Y191191D01*
X267991Y191246D01*
X267919Y191306D01*
X267891Y191317D01*
X267868Y191334D01*
X267778Y191362D01*
X267690Y191396D01*
X267661Y191398D01*
X267633Y191406D01*
X267538Y191404D01*
X267444Y191409D01*
X267416Y191401D01*
X267387Y191400D01*
X267298Y191368D01*
X267207Y191342D01*
X267183Y191326D01*
X267156Y191316D01*
X267082Y191257D01*
X267004Y191204D01*
X266980Y191175D01*
X266964Y191162D01*
X266946Y191134D01*
X266896Y191075D01*
X266465Y190430D01*
X265270Y189235D01*
X263865Y188296D01*
X262303Y187649D01*
X261323Y187454D01*
X261323Y195138D01*
X261320Y195158D01*
X261322Y195177D01*
X261300Y195279D01*
X261283Y195381D01*
X261274Y195398D01*
X261270Y195418D01*
X261217Y195507D01*
X261168Y195598D01*
X261154Y195612D01*
X261144Y195629D01*
X261065Y195696D01*
X260990Y195767D01*
X260972Y195776D01*
X260957Y195789D01*
X260861Y195827D01*
X260767Y195871D01*
X260747Y195873D01*
X260729Y195881D01*
X260562Y195899D01*
X259038Y195899D01*
X259018Y195896D01*
X258999Y195898D01*
X258897Y195876D01*
X258795Y195859D01*
X258778Y195850D01*
X258758Y195846D01*
X258669Y195793D01*
X258578Y195744D01*
X258564Y195730D01*
X258547Y195720D01*
X258480Y195641D01*
X258409Y195566D01*
X258400Y195548D01*
X258387Y195533D01*
X258348Y195437D01*
X258305Y195343D01*
X258303Y195323D01*
X258295Y195305D01*
X258277Y195138D01*
X258277Y187454D01*
X257297Y187649D01*
X255735Y188296D01*
X254330Y189235D01*
X253135Y190430D01*
X252704Y191075D01*
X252639Y191144D01*
X252581Y191218D01*
X252556Y191234D01*
X252536Y191255D01*
X252453Y191300D01*
X252374Y191351D01*
X252345Y191358D01*
X252319Y191372D01*
X252227Y191388D01*
X252135Y191411D01*
X252106Y191409D01*
X252077Y191414D01*
X251984Y191399D01*
X251890Y191392D01*
X251863Y191380D01*
X251834Y191376D01*
X251750Y191332D01*
X251664Y191295D01*
X251635Y191272D01*
X251616Y191262D01*
X251593Y191239D01*
X251533Y191191D01*
X249383Y189041D01*
X246409Y187809D01*
X244874Y187809D01*
X244854Y187806D01*
X244835Y187808D01*
X244733Y187786D01*
X244631Y187770D01*
X244614Y187760D01*
X244594Y187756D01*
X244505Y187703D01*
X244414Y187654D01*
X244400Y187640D01*
X244383Y187630D01*
X244316Y187551D01*
X244244Y187476D01*
X244236Y187458D01*
X244223Y187443D01*
X244184Y187347D01*
X244141Y187253D01*
X244139Y187233D01*
X244131Y187215D01*
X244113Y187048D01*
X244113Y80300D01*
X244124Y80229D01*
X244126Y80157D01*
X244144Y80108D01*
X244152Y80057D01*
X244186Y79994D01*
X244211Y79926D01*
X244243Y79886D01*
X244268Y79840D01*
X244320Y79790D01*
X244364Y79734D01*
X244408Y79706D01*
X244446Y79670D01*
X244511Y79640D01*
X244571Y79601D01*
X244622Y79588D01*
X244669Y79567D01*
X244740Y79559D01*
X244810Y79541D01*
X244862Y79545D01*
X244913Y79539D01*
X244984Y79555D01*
X245055Y79560D01*
X245103Y79581D01*
X245154Y79592D01*
X245215Y79629D01*
X245281Y79657D01*
X245337Y79701D01*
X245365Y79718D01*
X245380Y79736D01*
X245412Y79761D01*
X250445Y84794D01*
X250446Y84794D01*
X250465Y84792D01*
X250567Y84814D01*
X250669Y84830D01*
X250686Y84840D01*
X250706Y84844D01*
X250795Y84897D01*
X250886Y84946D01*
X250900Y84960D01*
X250917Y84970D01*
X250984Y85049D01*
X251056Y85124D01*
X251064Y85142D01*
X251077Y85157D01*
X251116Y85253D01*
X251159Y85347D01*
X251161Y85367D01*
X251169Y85385D01*
X251187Y85552D01*
X251187Y90065D01*
X265535Y104413D01*
X311843Y104413D01*
X311958Y104432D01*
X312074Y104449D01*
X312080Y104451D01*
X312086Y104452D01*
X312188Y104507D01*
X312293Y104560D01*
X312298Y104565D01*
X312303Y104568D01*
X312384Y104652D01*
X312466Y104736D01*
X312469Y104742D01*
X312473Y104746D01*
X312481Y104763D01*
X312546Y104883D01*
X312555Y104904D01*
X314196Y106545D01*
X316340Y107433D01*
X318660Y107433D01*
X320804Y106545D01*
X322445Y104904D01*
X323333Y102760D01*
X323333Y100440D01*
X322445Y98296D01*
X320804Y96655D01*
X318660Y95767D01*
X316340Y95767D01*
X314196Y96655D01*
X312555Y98296D01*
X312546Y98317D01*
X312485Y98417D01*
X312425Y98517D01*
X312420Y98521D01*
X312417Y98526D01*
X312327Y98601D01*
X312238Y98677D01*
X312232Y98679D01*
X312227Y98683D01*
X312119Y98725D01*
X312010Y98769D01*
X312002Y98770D01*
X311998Y98771D01*
X311979Y98772D01*
X311843Y98787D01*
X268180Y98787D01*
X268090Y98773D01*
X267999Y98765D01*
X267970Y98753D01*
X267938Y98748D01*
X267857Y98705D01*
X267773Y98669D01*
X267741Y98643D01*
X267720Y98632D01*
X267698Y98609D01*
X267642Y98564D01*
X257036Y87958D01*
X256983Y87884D01*
X256923Y87814D01*
X256911Y87784D01*
X256892Y87758D01*
X256865Y87671D01*
X256831Y87586D01*
X256827Y87545D01*
X256820Y87523D01*
X256821Y87491D01*
X256813Y87420D01*
X256813Y85552D01*
X256816Y85532D01*
X256814Y85513D01*
X256836Y85411D01*
X256852Y85309D01*
X256862Y85292D01*
X256866Y85272D01*
X256919Y85183D01*
X256968Y85092D01*
X256982Y85078D01*
X256992Y85061D01*
X257071Y84994D01*
X257146Y84922D01*
X257164Y84914D01*
X257179Y84901D01*
X257275Y84862D01*
X257369Y84819D01*
X257389Y84817D01*
X257407Y84809D01*
X257556Y84793D01*
X262591Y79758D01*
X262591Y72642D01*
X257558Y67609D01*
X250442Y67609D01*
X245412Y72639D01*
X245354Y72680D01*
X245302Y72730D01*
X245255Y72752D01*
X245213Y72782D01*
X245144Y72803D01*
X245079Y72833D01*
X245027Y72839D01*
X244977Y72855D01*
X244906Y72853D01*
X244835Y72861D01*
X244784Y72850D01*
X244732Y72848D01*
X244664Y72824D01*
X244594Y72808D01*
X244549Y72782D01*
X244501Y72764D01*
X244445Y72719D01*
X244383Y72682D01*
X244349Y72643D01*
X244309Y72610D01*
X244270Y72550D01*
X244223Y72495D01*
X244204Y72447D01*
X244176Y72403D01*
X244158Y72334D01*
X244131Y72267D01*
X244123Y72196D01*
X244115Y72165D01*
X244117Y72141D01*
X244113Y72100D01*
X244113Y55060D01*
X244124Y54989D01*
X244126Y54917D01*
X244144Y54868D01*
X244152Y54817D01*
X244186Y54754D01*
X244211Y54686D01*
X244243Y54646D01*
X244268Y54600D01*
X244320Y54550D01*
X244364Y54494D01*
X244408Y54466D01*
X244446Y54430D01*
X244511Y54400D01*
X244571Y54361D01*
X244622Y54348D01*
X244669Y54327D01*
X244740Y54319D01*
X244810Y54301D01*
X244862Y54305D01*
X244913Y54299D01*
X244984Y54315D01*
X245055Y54320D01*
X245103Y54341D01*
X245154Y54352D01*
X245215Y54389D01*
X245281Y54417D01*
X245337Y54461D01*
X245365Y54478D01*
X245380Y54496D01*
X245412Y54521D01*
X250442Y59551D01*
X257558Y59551D01*
X262591Y54518D01*
X262591Y47402D01*
X257558Y42369D01*
X250442Y42369D01*
X245412Y47399D01*
X245354Y47440D01*
X245302Y47490D01*
X245255Y47512D01*
X245213Y47542D01*
X245144Y47563D01*
X245079Y47593D01*
X245027Y47599D01*
X244977Y47615D01*
X244906Y47613D01*
X244835Y47621D01*
X244784Y47610D01*
X244732Y47608D01*
X244664Y47584D01*
X244594Y47568D01*
X244549Y47542D01*
X244501Y47524D01*
X244445Y47479D01*
X244383Y47442D01*
X244349Y47403D01*
X244309Y47370D01*
X244270Y47310D01*
X244223Y47255D01*
X244204Y47207D01*
X244176Y47163D01*
X244158Y47094D01*
X244131Y47027D01*
X244123Y46956D01*
X244115Y46925D01*
X244117Y46901D01*
X244113Y46860D01*
X244113Y39580D01*
X244116Y39561D01*
X244114Y39543D01*
X244129Y39473D01*
X244135Y39399D01*
X244147Y39370D01*
X244152Y39338D01*
X244162Y39319D01*
X244166Y39302D01*
X244200Y39245D01*
X244231Y39173D01*
X244257Y39141D01*
X244268Y39120D01*
X244284Y39104D01*
X244292Y39091D01*
X244306Y39080D01*
X244336Y39042D01*
X247600Y35778D01*
X247601Y35777D01*
X247675Y35724D01*
X247744Y35665D01*
X247774Y35652D01*
X247801Y35634D01*
X247888Y35607D01*
X247972Y35573D01*
X248013Y35568D01*
X248036Y35561D01*
X248068Y35562D01*
X248139Y35554D01*
X279434Y35551D01*
X386698Y35551D01*
X386788Y35565D01*
X386879Y35573D01*
X386908Y35585D01*
X386940Y35590D01*
X387021Y35633D01*
X387105Y35669D01*
X387137Y35695D01*
X387158Y35706D01*
X387180Y35729D01*
X387236Y35774D01*
X397798Y46336D01*
X397810Y46352D01*
X397825Y46365D01*
X397881Y46452D01*
X397942Y46536D01*
X397948Y46555D01*
X397958Y46572D01*
X397984Y46672D01*
X398014Y46771D01*
X398014Y46791D01*
X398019Y46810D01*
X398010Y46913D01*
X398008Y47017D01*
X398001Y47036D01*
X397999Y47055D01*
X397959Y47150D01*
X397923Y47248D01*
X397911Y47263D01*
X397903Y47282D01*
X397809Y47399D01*
X397809Y54518D01*
X402845Y59554D01*
X402846Y59554D01*
X402865Y59552D01*
X402967Y59574D01*
X403069Y59590D01*
X403086Y59600D01*
X403106Y59604D01*
X403195Y59657D01*
X403286Y59706D01*
X403300Y59720D01*
X403317Y59730D01*
X403384Y59809D01*
X403456Y59884D01*
X403464Y59902D01*
X403477Y59917D01*
X403516Y60013D01*
X403559Y60107D01*
X403561Y60127D01*
X403569Y60145D01*
X403587Y60312D01*
X403587Y66848D01*
X403584Y66868D01*
X403586Y66887D01*
X403564Y66989D01*
X403548Y67091D01*
X403538Y67108D01*
X403534Y67128D01*
X403481Y67217D01*
X403432Y67308D01*
X403418Y67322D01*
X403408Y67339D01*
X403329Y67406D01*
X403254Y67478D01*
X403236Y67486D01*
X403221Y67499D01*
X403125Y67538D01*
X403031Y67581D01*
X403011Y67583D01*
X402993Y67591D01*
X402844Y67607D01*
X397809Y72642D01*
X397809Y79758D01*
X402842Y84791D01*
X409958Y84791D01*
X414991Y79758D01*
X414991Y72642D01*
X409955Y67606D01*
X409954Y67606D01*
X409935Y67608D01*
X409833Y67586D01*
X409731Y67570D01*
X409714Y67560D01*
X409694Y67556D01*
X409605Y67503D01*
X409514Y67454D01*
X409500Y67440D01*
X409483Y67430D01*
X409416Y67351D01*
X409344Y67276D01*
X409336Y67258D01*
X409323Y67243D01*
X409284Y67147D01*
X409241Y67053D01*
X409239Y67033D01*
X409231Y67015D01*
X409213Y66848D01*
X409213Y60312D01*
X409216Y60292D01*
X409214Y60273D01*
X409236Y60171D01*
X409252Y60069D01*
X409262Y60052D01*
X409266Y60032D01*
X409319Y59943D01*
X409368Y59852D01*
X409382Y59838D01*
X409392Y59821D01*
X409471Y59754D01*
X409546Y59682D01*
X409564Y59674D01*
X409579Y59661D01*
X409675Y59622D01*
X409769Y59579D01*
X409789Y59577D01*
X409807Y59569D01*
X409956Y59553D01*
X414991Y54518D01*
X414991Y47402D01*
X409958Y42369D01*
X402837Y42369D01*
X402836Y42370D01*
X402824Y42385D01*
X402737Y42441D01*
X402653Y42502D01*
X402634Y42508D01*
X402617Y42518D01*
X402517Y42544D01*
X402418Y42574D01*
X402398Y42574D01*
X402379Y42579D01*
X402276Y42570D01*
X402172Y42568D01*
X402153Y42561D01*
X402133Y42559D01*
X402038Y42519D01*
X401941Y42483D01*
X401925Y42471D01*
X401907Y42463D01*
X401776Y42358D01*
X394562Y35144D01*
X391342Y31924D01*
X391300Y31866D01*
X391251Y31814D01*
X391229Y31767D01*
X391198Y31724D01*
X391177Y31656D01*
X391147Y31591D01*
X391141Y31539D01*
X391126Y31489D01*
X391128Y31418D01*
X391120Y31347D01*
X391131Y31296D01*
X391132Y31243D01*
X391157Y31176D01*
X391172Y31107D01*
X391199Y31062D01*
X391217Y31012D01*
X391262Y30957D01*
X391298Y30895D01*
X391338Y30861D01*
X391371Y30820D01*
X391431Y30782D01*
X391485Y30735D01*
X391533Y30716D01*
X391577Y30687D01*
X391647Y30670D01*
X391713Y30643D01*
X391785Y30635D01*
X391816Y30627D01*
X391839Y30629D01*
X391880Y30625D01*
X499879Y30546D01*
X499975Y30561D01*
X500073Y30571D01*
X500096Y30581D01*
X500122Y30585D01*
X500208Y30631D01*
X500297Y30671D01*
X500316Y30688D01*
X500339Y30700D01*
X500407Y30771D01*
X500478Y30837D01*
X500491Y30860D01*
X500509Y30878D01*
X500550Y30967D01*
X500597Y31053D01*
X500602Y31078D01*
X500613Y31101D01*
X500623Y31198D01*
X500641Y31295D01*
X500637Y31320D01*
X500640Y31346D01*
X500619Y31441D01*
X500605Y31538D01*
X500593Y31561D01*
X500588Y31586D01*
X500538Y31670D01*
X500493Y31757D01*
X500475Y31775D01*
X500462Y31798D01*
X500388Y31861D01*
X500318Y31929D01*
X500290Y31945D01*
X500275Y31958D01*
X500244Y31970D01*
X500171Y32010D01*
X496794Y33409D01*
X490419Y39784D01*
X486969Y48113D01*
X486969Y57127D01*
X490419Y65456D01*
X496794Y71831D01*
X505123Y75281D01*
X514137Y75281D01*
X522466Y71831D01*
X528841Y65456D01*
X532291Y57127D01*
X532291Y48113D01*
X528841Y39784D01*
X522466Y33409D01*
X519055Y31996D01*
X518972Y31945D01*
X518886Y31900D01*
X518868Y31880D01*
X518846Y31866D01*
X518784Y31792D01*
X518717Y31721D01*
X518706Y31697D01*
X518689Y31677D01*
X518654Y31586D01*
X518613Y31498D01*
X518610Y31472D01*
X518601Y31447D01*
X518597Y31350D01*
X518586Y31254D01*
X518591Y31228D01*
X518590Y31202D01*
X518617Y31108D01*
X518638Y31013D01*
X518652Y30991D01*
X518659Y30965D01*
X518714Y30886D01*
X518764Y30802D01*
X518784Y30785D01*
X518799Y30763D01*
X518877Y30705D01*
X518951Y30642D01*
X518975Y30632D01*
X518996Y30617D01*
X519089Y30586D01*
X519179Y30550D01*
X519212Y30546D01*
X519230Y30540D01*
X519263Y30541D01*
X519346Y30532D01*
X634999Y30447D01*
X635019Y30450D01*
G37*
%LPC*%
G36*
X719706Y131317D02*
X719706Y131317D01*
X711958Y134527D01*
X706027Y140458D01*
X704591Y143924D01*
X704553Y143985D01*
X704524Y144051D01*
X704489Y144089D01*
X704461Y144133D01*
X704406Y144179D01*
X704358Y144232D01*
X704312Y144257D01*
X704272Y144290D01*
X704205Y144316D01*
X704142Y144350D01*
X704091Y144359D01*
X704042Y144378D01*
X703971Y144381D01*
X703900Y144394D01*
X703849Y144386D01*
X703797Y144389D01*
X703728Y144369D01*
X703657Y144358D01*
X703610Y144335D01*
X703560Y144320D01*
X703502Y144279D01*
X703438Y144247D01*
X703401Y144209D01*
X703358Y144180D01*
X703316Y144122D01*
X703265Y144071D01*
X703231Y144008D01*
X703212Y143982D01*
X703204Y143960D01*
X703184Y143924D01*
X702166Y141465D01*
X696735Y136034D01*
X689640Y133095D01*
X681960Y133095D01*
X674865Y136034D01*
X669434Y141465D01*
X668298Y144208D01*
X668274Y144247D01*
X668258Y144290D01*
X668209Y144351D01*
X668168Y144417D01*
X668133Y144447D01*
X668104Y144482D01*
X668039Y144524D01*
X667979Y144574D01*
X667936Y144591D01*
X667897Y144615D01*
X667822Y144634D01*
X667749Y144662D01*
X667703Y144664D01*
X667659Y144675D01*
X667581Y144669D01*
X667503Y144673D01*
X667459Y144660D01*
X667414Y144656D01*
X667342Y144626D01*
X667267Y144604D01*
X667229Y144578D01*
X667187Y144560D01*
X667081Y144475D01*
X667065Y144464D01*
X667062Y144460D01*
X667056Y144455D01*
X655696Y133095D01*
X639704Y133095D01*
X635761Y137038D01*
X635761Y167762D01*
X639704Y171705D01*
X653034Y171705D01*
X653054Y171708D01*
X653073Y171706D01*
X653175Y171728D01*
X653277Y171744D01*
X653294Y171754D01*
X653314Y171758D01*
X653403Y171811D01*
X653494Y171860D01*
X653508Y171874D01*
X653525Y171884D01*
X653592Y171963D01*
X653664Y172038D01*
X653672Y172056D01*
X653685Y172071D01*
X653724Y172167D01*
X653767Y172261D01*
X653769Y172281D01*
X653777Y172299D01*
X653795Y172466D01*
X653795Y185796D01*
X665104Y197105D01*
X681096Y197105D01*
X692405Y185796D01*
X692405Y171068D01*
X692424Y170953D01*
X692441Y170837D01*
X692443Y170832D01*
X692444Y170825D01*
X692499Y170722D01*
X692552Y170618D01*
X692557Y170614D01*
X692560Y170608D01*
X692644Y170528D01*
X692728Y170446D01*
X692734Y170442D01*
X692738Y170439D01*
X692755Y170431D01*
X692875Y170365D01*
X696735Y168766D01*
X702166Y163335D01*
X703184Y160876D01*
X703222Y160815D01*
X703251Y160749D01*
X703287Y160711D01*
X703314Y160667D01*
X703369Y160621D01*
X703418Y160568D01*
X703463Y160543D01*
X703504Y160510D01*
X703570Y160484D01*
X703633Y160450D01*
X703685Y160441D01*
X703733Y160422D01*
X703805Y160419D01*
X703875Y160406D01*
X703927Y160414D01*
X703979Y160411D01*
X704048Y160431D01*
X704119Y160442D01*
X704165Y160465D01*
X704215Y160480D01*
X704274Y160521D01*
X704338Y160553D01*
X704374Y160591D01*
X704417Y160620D01*
X704460Y160678D01*
X704510Y160729D01*
X704545Y160792D01*
X704564Y160818D01*
X704571Y160840D01*
X704591Y160876D01*
X706027Y164342D01*
X711958Y170273D01*
X719706Y173483D01*
X728094Y173483D01*
X735842Y170273D01*
X741773Y164342D01*
X742247Y163199D01*
X742284Y163138D01*
X742314Y163073D01*
X742349Y163034D01*
X742376Y162990D01*
X742432Y162944D01*
X742480Y162891D01*
X742526Y162866D01*
X742566Y162833D01*
X742633Y162807D01*
X742696Y162773D01*
X742747Y162764D01*
X742795Y162745D01*
X742867Y162742D01*
X742938Y162729D01*
X742989Y162737D01*
X743041Y162735D01*
X743110Y162755D01*
X743181Y162765D01*
X743227Y162789D01*
X743277Y162803D01*
X743336Y162844D01*
X743400Y162876D01*
X743437Y162914D01*
X743479Y162943D01*
X743522Y163001D01*
X743572Y163052D01*
X743607Y163115D01*
X743626Y163141D01*
X743633Y163163D01*
X743653Y163199D01*
X744127Y164342D01*
X750058Y170273D01*
X757806Y173483D01*
X766194Y173483D01*
X773942Y170273D01*
X779873Y164342D01*
X780347Y163199D01*
X780384Y163138D01*
X780414Y163073D01*
X780449Y163034D01*
X780476Y162990D01*
X780531Y162944D01*
X780580Y162891D01*
X780626Y162866D01*
X780666Y162833D01*
X780733Y162807D01*
X780796Y162773D01*
X780847Y162764D01*
X780895Y162745D01*
X780967Y162742D01*
X781038Y162729D01*
X781089Y162737D01*
X781141Y162735D01*
X781210Y162755D01*
X781281Y162765D01*
X781327Y162789D01*
X781377Y162803D01*
X781436Y162844D01*
X781500Y162876D01*
X781537Y162914D01*
X781579Y162943D01*
X781622Y163001D01*
X781672Y163052D01*
X781707Y163115D01*
X781726Y163141D01*
X781733Y163163D01*
X781753Y163199D01*
X782227Y164342D01*
X788158Y170273D01*
X795906Y173483D01*
X804294Y173483D01*
X812042Y170273D01*
X817973Y164342D01*
X821183Y156594D01*
X821183Y148206D01*
X817973Y140458D01*
X812042Y134527D01*
X804294Y131317D01*
X795906Y131317D01*
X788158Y134527D01*
X782227Y140458D01*
X781753Y141601D01*
X781716Y141662D01*
X781686Y141727D01*
X781651Y141766D01*
X781624Y141810D01*
X781568Y141856D01*
X781520Y141909D01*
X781474Y141934D01*
X781434Y141967D01*
X781367Y141993D01*
X781304Y142027D01*
X781253Y142036D01*
X781205Y142055D01*
X781133Y142058D01*
X781062Y142071D01*
X781011Y142063D01*
X780959Y142065D01*
X780890Y142045D01*
X780819Y142035D01*
X780773Y142011D01*
X780723Y141997D01*
X780664Y141956D01*
X780600Y141924D01*
X780563Y141886D01*
X780521Y141857D01*
X780478Y141799D01*
X780428Y141748D01*
X780393Y141685D01*
X780374Y141659D01*
X780367Y141637D01*
X780347Y141601D01*
X779873Y140458D01*
X773942Y134527D01*
X766194Y131317D01*
X757806Y131317D01*
X750058Y134527D01*
X744127Y140458D01*
X743653Y141601D01*
X743616Y141662D01*
X743586Y141727D01*
X743551Y141766D01*
X743524Y141810D01*
X743469Y141856D01*
X743420Y141909D01*
X743374Y141934D01*
X743334Y141967D01*
X743267Y141993D01*
X743204Y142027D01*
X743153Y142036D01*
X743105Y142055D01*
X743033Y142058D01*
X742962Y142071D01*
X742911Y142063D01*
X742859Y142065D01*
X742790Y142045D01*
X742719Y142035D01*
X742673Y142011D01*
X742623Y141997D01*
X742564Y141956D01*
X742500Y141924D01*
X742463Y141886D01*
X742421Y141857D01*
X742378Y141799D01*
X742328Y141748D01*
X742293Y141685D01*
X742274Y141659D01*
X742267Y141637D01*
X742247Y141601D01*
X741773Y140458D01*
X735842Y134527D01*
X728094Y131317D01*
X719706Y131317D01*
G37*
%LPD*%
%LPC*%
G36*
X544940Y159267D02*
X544940Y159267D01*
X542796Y160155D01*
X541155Y161796D01*
X540267Y163940D01*
X540267Y166260D01*
X541155Y168404D01*
X542556Y169805D01*
X542609Y169879D01*
X542669Y169948D01*
X542681Y169979D01*
X542700Y170005D01*
X542727Y170092D01*
X542761Y170177D01*
X542765Y170218D01*
X542772Y170240D01*
X542771Y170272D01*
X542779Y170343D01*
X542779Y217448D01*
X542776Y217468D01*
X542778Y217487D01*
X542756Y217589D01*
X542740Y217691D01*
X542730Y217708D01*
X542726Y217728D01*
X542673Y217817D01*
X542624Y217908D01*
X542610Y217922D01*
X542600Y217939D01*
X542521Y218006D01*
X542446Y218078D01*
X542428Y218086D01*
X542413Y218099D01*
X542317Y218138D01*
X542223Y218181D01*
X542203Y218183D01*
X542185Y218191D01*
X542018Y218209D01*
X525011Y218209D01*
X523809Y219411D01*
X523809Y236189D01*
X525011Y237391D01*
X541789Y237391D01*
X542991Y236189D01*
X542991Y232025D01*
X543002Y231954D01*
X543004Y231882D01*
X543022Y231833D01*
X543030Y231782D01*
X543064Y231719D01*
X543089Y231651D01*
X543121Y231611D01*
X543146Y231565D01*
X543197Y231515D01*
X543242Y231459D01*
X543286Y231431D01*
X543324Y231395D01*
X543389Y231365D01*
X543449Y231326D01*
X543500Y231314D01*
X543547Y231292D01*
X543618Y231284D01*
X543688Y231266D01*
X543740Y231270D01*
X543791Y231265D01*
X543862Y231280D01*
X543933Y231285D01*
X543981Y231306D01*
X544032Y231317D01*
X544093Y231354D01*
X544159Y231382D01*
X544215Y231427D01*
X544243Y231443D01*
X544258Y231461D01*
X544290Y231486D01*
X544947Y232144D01*
X553925Y241121D01*
X553936Y241137D01*
X553952Y241150D01*
X554008Y241237D01*
X554068Y241321D01*
X554074Y241340D01*
X554085Y241356D01*
X554110Y241457D01*
X554141Y241556D01*
X554140Y241576D01*
X554145Y241595D01*
X554137Y241698D01*
X554134Y241802D01*
X554127Y241820D01*
X554126Y241840D01*
X554086Y241935D01*
X554050Y242033D01*
X554037Y242048D01*
X554030Y242067D01*
X553925Y242197D01*
X545158Y250964D01*
X545084Y251017D01*
X545014Y251077D01*
X544984Y251089D01*
X544958Y251108D01*
X544871Y251135D01*
X544786Y251169D01*
X544745Y251173D01*
X544723Y251180D01*
X544691Y251179D01*
X544620Y251187D01*
X481435Y251187D01*
X479564Y253058D01*
X436424Y296198D01*
X436408Y296210D01*
X436395Y296225D01*
X436308Y296282D01*
X436224Y296342D01*
X436205Y296348D01*
X436188Y296358D01*
X436088Y296384D01*
X435989Y296414D01*
X435969Y296414D01*
X435950Y296419D01*
X435847Y296410D01*
X435743Y296408D01*
X435724Y296401D01*
X435705Y296399D01*
X435610Y296359D01*
X435512Y296323D01*
X435497Y296311D01*
X435478Y296303D01*
X435361Y296209D01*
X428242Y296209D01*
X423209Y301242D01*
X423209Y308358D01*
X428242Y313391D01*
X435358Y313391D01*
X440391Y308358D01*
X440391Y301237D01*
X440390Y301236D01*
X440375Y301224D01*
X440318Y301137D01*
X440258Y301053D01*
X440252Y301034D01*
X440242Y301017D01*
X440216Y300917D01*
X440186Y300818D01*
X440186Y300798D01*
X440181Y300779D01*
X440190Y300676D01*
X440192Y300572D01*
X440199Y300553D01*
X440201Y300533D01*
X440241Y300439D01*
X440277Y300341D01*
X440289Y300325D01*
X440297Y300307D01*
X440379Y300204D01*
X440382Y300200D01*
X440385Y300197D01*
X440402Y300176D01*
X483542Y257036D01*
X483616Y256983D01*
X483686Y256923D01*
X483716Y256911D01*
X483742Y256892D01*
X483829Y256865D01*
X483914Y256831D01*
X483955Y256827D01*
X483977Y256820D01*
X484009Y256821D01*
X484080Y256813D01*
X547265Y256813D01*
X559234Y244844D01*
X559308Y244791D01*
X559378Y244731D01*
X559408Y244719D01*
X559434Y244700D01*
X559521Y244673D01*
X559606Y244639D01*
X559647Y244635D01*
X559669Y244628D01*
X559701Y244629D01*
X559772Y244621D01*
X579679Y244621D01*
X579794Y244640D01*
X579910Y244657D01*
X579916Y244659D01*
X579922Y244660D01*
X580025Y244715D01*
X580130Y244768D01*
X580134Y244773D01*
X580139Y244776D01*
X580219Y244860D01*
X580302Y244944D01*
X580305Y244950D01*
X580309Y244954D01*
X580317Y244971D01*
X580383Y245091D01*
X581082Y246778D01*
X583802Y249498D01*
X587356Y250971D01*
X606444Y250971D01*
X609998Y249498D01*
X612718Y246778D01*
X614191Y243224D01*
X614191Y239376D01*
X612718Y235822D01*
X609998Y233102D01*
X606444Y231629D01*
X587356Y231629D01*
X583802Y233102D01*
X581082Y235822D01*
X580383Y237509D01*
X580321Y237609D01*
X580261Y237709D01*
X580256Y237713D01*
X580253Y237718D01*
X580163Y237793D01*
X580074Y237869D01*
X580068Y237871D01*
X580064Y237875D01*
X579955Y237917D01*
X579846Y237961D01*
X579838Y237962D01*
X579834Y237963D01*
X579816Y237964D01*
X579679Y237979D01*
X560491Y237979D01*
X560401Y237965D01*
X560310Y237957D01*
X560280Y237945D01*
X560248Y237940D01*
X560167Y237897D01*
X560084Y237861D01*
X560051Y237835D01*
X560031Y237824D01*
X560009Y237801D01*
X559953Y237756D01*
X549644Y227447D01*
X549591Y227373D01*
X549531Y227304D01*
X549519Y227274D01*
X549500Y227248D01*
X549473Y227161D01*
X549439Y227076D01*
X549435Y227035D01*
X549428Y227013D01*
X549429Y226980D01*
X549421Y226909D01*
X549421Y170343D01*
X549435Y170253D01*
X549443Y170162D01*
X549455Y170133D01*
X549460Y170101D01*
X549503Y170020D01*
X549539Y169936D01*
X549565Y169904D01*
X549576Y169883D01*
X549599Y169861D01*
X549644Y169805D01*
X551045Y168404D01*
X551933Y166260D01*
X551933Y163940D01*
X551045Y161796D01*
X549404Y160155D01*
X547260Y159267D01*
X544940Y159267D01*
G37*
%LPD*%
%LPC*%
G36*
X834006Y55117D02*
X834006Y55117D01*
X826258Y58327D01*
X820327Y64258D01*
X817117Y72006D01*
X817117Y80394D01*
X820327Y88142D01*
X826258Y94073D01*
X834006Y97283D01*
X842394Y97283D01*
X850142Y94073D01*
X856073Y88142D01*
X859283Y80394D01*
X859283Y72006D01*
X856073Y64258D01*
X850142Y58327D01*
X842394Y55117D01*
X834006Y55117D01*
G37*
%LPD*%
%LPC*%
G36*
X777713Y259079D02*
X777713Y259079D01*
X765809Y270983D01*
X765809Y287817D01*
X777713Y299721D01*
X794547Y299721D01*
X806451Y287817D01*
X806451Y270983D01*
X794547Y259079D01*
X777713Y259079D01*
G37*
%LPD*%
%LPC*%
G36*
X836193Y228999D02*
X836193Y228999D01*
X824629Y240563D01*
X824629Y256916D01*
X836193Y268480D01*
X852546Y268480D01*
X864110Y256916D01*
X864110Y240563D01*
X852546Y228999D01*
X836193Y228999D01*
G37*
%LPD*%
%LPC*%
G36*
X341740Y222767D02*
X341740Y222767D01*
X339596Y223655D01*
X337955Y225296D01*
X337067Y227440D01*
X337067Y229760D01*
X337955Y231904D01*
X339596Y233545D01*
X339617Y233554D01*
X339717Y233615D01*
X339817Y233675D01*
X339821Y233680D01*
X339826Y233683D01*
X339901Y233773D01*
X339977Y233862D01*
X339979Y233868D01*
X339983Y233873D01*
X340025Y233981D01*
X340069Y234090D01*
X340070Y234098D01*
X340071Y234102D01*
X340072Y234121D01*
X340087Y234257D01*
X340087Y250060D01*
X340076Y250131D01*
X340074Y250203D01*
X340056Y250252D01*
X340048Y250303D01*
X340014Y250366D01*
X339989Y250434D01*
X339957Y250474D01*
X339932Y250520D01*
X339880Y250570D01*
X339836Y250626D01*
X339792Y250654D01*
X339754Y250690D01*
X339689Y250720D01*
X339629Y250759D01*
X339578Y250772D01*
X339531Y250793D01*
X339460Y250801D01*
X339390Y250819D01*
X339338Y250815D01*
X339287Y250821D01*
X339216Y250805D01*
X339145Y250800D01*
X339097Y250779D01*
X339046Y250768D01*
X338985Y250731D01*
X338919Y250703D01*
X338863Y250659D01*
X338835Y250642D01*
X338820Y250624D01*
X338788Y250599D01*
X333758Y245569D01*
X326642Y245569D01*
X321609Y250602D01*
X321609Y257718D01*
X326642Y262751D01*
X333758Y262751D01*
X338788Y257721D01*
X338846Y257680D01*
X338898Y257630D01*
X338945Y257608D01*
X338987Y257578D01*
X339056Y257557D01*
X339121Y257527D01*
X339173Y257521D01*
X339223Y257505D01*
X339294Y257507D01*
X339365Y257499D01*
X339416Y257510D01*
X339468Y257512D01*
X339536Y257536D01*
X339606Y257552D01*
X339651Y257578D01*
X339699Y257596D01*
X339755Y257641D01*
X339817Y257678D01*
X339851Y257717D01*
X339891Y257750D01*
X339930Y257810D01*
X339977Y257865D01*
X339996Y257913D01*
X340024Y257957D01*
X340042Y258026D01*
X340069Y258093D01*
X340077Y258164D01*
X340085Y258195D01*
X340083Y258219D01*
X340087Y258260D01*
X340087Y290620D01*
X340073Y290710D01*
X340065Y290801D01*
X340053Y290830D01*
X340048Y290862D01*
X340005Y290943D01*
X339969Y291027D01*
X339943Y291059D01*
X339932Y291080D01*
X339909Y291102D01*
X339864Y291158D01*
X334824Y296198D01*
X334808Y296210D01*
X334795Y296225D01*
X334708Y296282D01*
X334624Y296342D01*
X334605Y296348D01*
X334588Y296358D01*
X334488Y296384D01*
X334389Y296414D01*
X334369Y296414D01*
X334350Y296419D01*
X334247Y296410D01*
X334143Y296408D01*
X334124Y296401D01*
X334105Y296399D01*
X334010Y296359D01*
X333912Y296323D01*
X333897Y296311D01*
X333878Y296303D01*
X333761Y296209D01*
X326642Y296209D01*
X321609Y301242D01*
X321609Y308358D01*
X326642Y313391D01*
X333758Y313391D01*
X338791Y308358D01*
X338791Y301237D01*
X338790Y301236D01*
X338775Y301224D01*
X338719Y301137D01*
X338658Y301053D01*
X338652Y301034D01*
X338642Y301017D01*
X338616Y300917D01*
X338586Y300818D01*
X338586Y300798D01*
X338581Y300779D01*
X338590Y300676D01*
X338592Y300572D01*
X338599Y300553D01*
X338601Y300533D01*
X338641Y300438D01*
X338677Y300341D01*
X338689Y300325D01*
X338697Y300307D01*
X338779Y300204D01*
X338782Y300200D01*
X338785Y300197D01*
X338802Y300176D01*
X345713Y293265D01*
X345713Y258260D01*
X345724Y258189D01*
X345726Y258117D01*
X345744Y258068D01*
X345752Y258017D01*
X345786Y257954D01*
X345811Y257886D01*
X345843Y257846D01*
X345868Y257800D01*
X345920Y257750D01*
X345964Y257694D01*
X346008Y257666D01*
X346046Y257630D01*
X346111Y257600D01*
X346171Y257561D01*
X346222Y257548D01*
X346269Y257527D01*
X346340Y257519D01*
X346410Y257501D01*
X346462Y257505D01*
X346513Y257499D01*
X346584Y257515D01*
X346655Y257520D01*
X346703Y257541D01*
X346754Y257552D01*
X346815Y257589D01*
X346881Y257617D01*
X346937Y257661D01*
X346965Y257678D01*
X346980Y257696D01*
X347012Y257721D01*
X352042Y262751D01*
X359158Y262751D01*
X364191Y257718D01*
X364191Y250602D01*
X359158Y245569D01*
X352042Y245569D01*
X347012Y250599D01*
X346954Y250640D01*
X346902Y250690D01*
X346855Y250712D01*
X346813Y250742D01*
X346744Y250763D01*
X346679Y250793D01*
X346627Y250799D01*
X346577Y250815D01*
X346506Y250813D01*
X346435Y250821D01*
X346384Y250810D01*
X346332Y250808D01*
X346264Y250784D01*
X346194Y250768D01*
X346149Y250742D01*
X346101Y250724D01*
X346045Y250679D01*
X345983Y250642D01*
X345949Y250603D01*
X345909Y250570D01*
X345870Y250510D01*
X345823Y250455D01*
X345804Y250407D01*
X345776Y250363D01*
X345758Y250294D01*
X345731Y250227D01*
X345723Y250156D01*
X345715Y250125D01*
X345717Y250101D01*
X345713Y250060D01*
X345713Y234257D01*
X345732Y234142D01*
X345749Y234026D01*
X345751Y234020D01*
X345752Y234014D01*
X345807Y233912D01*
X345860Y233807D01*
X345865Y233802D01*
X345868Y233797D01*
X345952Y233716D01*
X346036Y233634D01*
X346042Y233631D01*
X346046Y233627D01*
X346063Y233619D01*
X346183Y233554D01*
X346204Y233545D01*
X347845Y231904D01*
X348733Y229760D01*
X348733Y227440D01*
X347845Y225296D01*
X346204Y223655D01*
X344060Y222767D01*
X341740Y222767D01*
G37*
%LPD*%
%LPC*%
G36*
X665104Y209295D02*
X665104Y209295D01*
X653795Y220604D01*
X653795Y236596D01*
X665104Y247905D01*
X681096Y247905D01*
X692405Y236596D01*
X692405Y220604D01*
X681096Y209295D01*
X665104Y209295D01*
G37*
%LPD*%
%LPC*%
G36*
X587356Y155429D02*
X587356Y155429D01*
X583802Y156902D01*
X581082Y159622D01*
X580172Y161817D01*
X580111Y161917D01*
X580051Y162017D01*
X580046Y162021D01*
X580043Y162026D01*
X579953Y162100D01*
X579864Y162177D01*
X579858Y162179D01*
X579853Y162183D01*
X579745Y162225D01*
X579636Y162269D01*
X579628Y162270D01*
X579623Y162271D01*
X579605Y162272D01*
X579469Y162287D01*
X570335Y162287D01*
X555987Y176635D01*
X555987Y197543D01*
X555968Y197658D01*
X555951Y197774D01*
X555949Y197780D01*
X555948Y197786D01*
X555893Y197888D01*
X555840Y197993D01*
X555835Y197998D01*
X555832Y198003D01*
X555748Y198084D01*
X555664Y198166D01*
X555658Y198169D01*
X555654Y198173D01*
X555637Y198181D01*
X555517Y198246D01*
X555496Y198255D01*
X553855Y199896D01*
X552967Y202040D01*
X552967Y204360D01*
X553855Y206504D01*
X555496Y208145D01*
X557640Y209033D01*
X559960Y209033D01*
X562104Y208145D01*
X563745Y206504D01*
X564633Y204360D01*
X564633Y202040D01*
X563745Y199896D01*
X562104Y198255D01*
X562083Y198246D01*
X561983Y198185D01*
X561883Y198125D01*
X561879Y198120D01*
X561874Y198117D01*
X561799Y198027D01*
X561723Y197938D01*
X561721Y197932D01*
X561717Y197927D01*
X561675Y197819D01*
X561631Y197710D01*
X561630Y197702D01*
X561629Y197698D01*
X561628Y197679D01*
X561613Y197543D01*
X561613Y179280D01*
X561627Y179190D01*
X561635Y179099D01*
X561647Y179070D01*
X561652Y179038D01*
X561695Y178957D01*
X561731Y178873D01*
X561757Y178841D01*
X561768Y178820D01*
X561791Y178798D01*
X561836Y178742D01*
X572442Y168136D01*
X572516Y168083D01*
X572586Y168023D01*
X572616Y168011D01*
X572642Y167992D01*
X572729Y167965D01*
X572814Y167931D01*
X572855Y167927D01*
X572877Y167920D01*
X572909Y167921D01*
X572980Y167913D01*
X579469Y167913D01*
X579584Y167932D01*
X579700Y167949D01*
X579705Y167951D01*
X579712Y167952D01*
X579814Y168007D01*
X579919Y168060D01*
X579924Y168065D01*
X579929Y168068D01*
X580009Y168152D01*
X580091Y168236D01*
X580095Y168242D01*
X580098Y168246D01*
X580106Y168263D01*
X580172Y168383D01*
X581082Y170578D01*
X583802Y173298D01*
X587356Y174771D01*
X606444Y174771D01*
X609998Y173298D01*
X612718Y170578D01*
X614191Y167024D01*
X614191Y163176D01*
X612718Y159622D01*
X609998Y156902D01*
X606444Y155429D01*
X587356Y155429D01*
G37*
%LPD*%
%LPC*%
G36*
X587356Y206229D02*
X587356Y206229D01*
X583802Y207702D01*
X581082Y210422D01*
X579609Y213976D01*
X579609Y217824D01*
X581082Y221378D01*
X583802Y224098D01*
X587356Y225571D01*
X606444Y225571D01*
X609998Y224098D01*
X612718Y221378D01*
X614191Y217824D01*
X614191Y213976D01*
X612718Y210422D01*
X609998Y207702D01*
X606444Y206229D01*
X587356Y206229D01*
G37*
%LPD*%
%LPC*%
G36*
X587356Y180829D02*
X587356Y180829D01*
X583802Y182302D01*
X581082Y185022D01*
X579609Y188576D01*
X579609Y192424D01*
X581082Y195978D01*
X583802Y198698D01*
X587356Y200171D01*
X606444Y200171D01*
X609998Y198698D01*
X612718Y195978D01*
X614191Y192424D01*
X614191Y188576D01*
X612718Y185022D01*
X609998Y182302D01*
X606444Y180829D01*
X587356Y180829D01*
G37*
%LPD*%
%LPC*%
G36*
X876525Y275570D02*
X876525Y275570D01*
X871200Y280895D01*
X871200Y288426D01*
X876747Y293973D01*
X876800Y294047D01*
X876859Y294116D01*
X876871Y294146D01*
X876890Y294173D01*
X876917Y294260D01*
X876951Y294345D01*
X876956Y294385D01*
X876963Y294408D01*
X876962Y294440D01*
X876970Y294511D01*
X876970Y299119D01*
X876955Y299209D01*
X876948Y299300D01*
X876935Y299329D01*
X876930Y299361D01*
X876887Y299442D01*
X876852Y299526D01*
X876826Y299558D01*
X876815Y299579D01*
X876792Y299601D01*
X876747Y299657D01*
X864959Y311444D01*
X864886Y311497D01*
X864816Y311557D01*
X864786Y311569D01*
X864760Y311588D01*
X864673Y311615D01*
X864588Y311649D01*
X864547Y311653D01*
X864525Y311660D01*
X864492Y311659D01*
X864421Y311667D01*
X862440Y311667D01*
X860296Y312555D01*
X858655Y314196D01*
X857767Y316340D01*
X857767Y318660D01*
X858655Y320804D01*
X860296Y322445D01*
X862440Y323333D01*
X864760Y323333D01*
X866904Y322445D01*
X868545Y320804D01*
X869433Y318660D01*
X869433Y316679D01*
X869437Y316652D01*
X869436Y316638D01*
X869448Y316579D01*
X869455Y316498D01*
X869467Y316468D01*
X869472Y316436D01*
X869484Y316414D01*
X869488Y316397D01*
X869521Y316341D01*
X869551Y316272D01*
X869577Y316239D01*
X869588Y316219D01*
X869604Y316203D01*
X869614Y316186D01*
X869631Y316172D01*
X869656Y316141D01*
X883611Y302185D01*
X883611Y294511D01*
X883626Y294421D01*
X883633Y294330D01*
X883646Y294300D01*
X883651Y294269D01*
X883694Y294188D01*
X883729Y294104D01*
X883755Y294072D01*
X883766Y294051D01*
X883789Y294029D01*
X883834Y293973D01*
X889381Y288426D01*
X889381Y280895D01*
X884056Y275570D01*
X876525Y275570D01*
G37*
%LPD*%
%LPC*%
G36*
X275842Y42369D02*
X275842Y42369D01*
X270809Y47402D01*
X270809Y54518D01*
X275845Y59554D01*
X275846Y59554D01*
X275865Y59552D01*
X275967Y59574D01*
X276069Y59590D01*
X276086Y59600D01*
X276106Y59604D01*
X276195Y59657D01*
X276286Y59706D01*
X276300Y59720D01*
X276317Y59730D01*
X276384Y59809D01*
X276456Y59884D01*
X276464Y59902D01*
X276477Y59917D01*
X276516Y60013D01*
X276559Y60107D01*
X276561Y60127D01*
X276569Y60145D01*
X276587Y60312D01*
X276587Y66848D01*
X276584Y66868D01*
X276586Y66887D01*
X276564Y66989D01*
X276548Y67091D01*
X276538Y67108D01*
X276534Y67128D01*
X276481Y67217D01*
X276432Y67308D01*
X276418Y67322D01*
X276408Y67339D01*
X276329Y67406D01*
X276254Y67478D01*
X276236Y67486D01*
X276221Y67499D01*
X276125Y67538D01*
X276031Y67581D01*
X276011Y67583D01*
X275993Y67591D01*
X275844Y67607D01*
X270809Y72642D01*
X270809Y79758D01*
X275842Y84791D01*
X282958Y84791D01*
X287991Y79758D01*
X287991Y72642D01*
X282955Y67606D01*
X282954Y67606D01*
X282935Y67608D01*
X282833Y67586D01*
X282731Y67570D01*
X282714Y67560D01*
X282694Y67556D01*
X282605Y67503D01*
X282514Y67454D01*
X282500Y67440D01*
X282483Y67430D01*
X282416Y67351D01*
X282344Y67276D01*
X282336Y67258D01*
X282323Y67243D01*
X282284Y67147D01*
X282241Y67053D01*
X282239Y67033D01*
X282231Y67015D01*
X282213Y66848D01*
X282213Y60312D01*
X282216Y60292D01*
X282214Y60273D01*
X282236Y60171D01*
X282252Y60069D01*
X282262Y60052D01*
X282266Y60032D01*
X282319Y59943D01*
X282368Y59852D01*
X282382Y59838D01*
X282392Y59821D01*
X282471Y59754D01*
X282546Y59682D01*
X282564Y59674D01*
X282579Y59661D01*
X282675Y59622D01*
X282769Y59579D01*
X282789Y59577D01*
X282807Y59569D01*
X282956Y59553D01*
X287991Y54518D01*
X287991Y47402D01*
X282958Y42369D01*
X275842Y42369D01*
G37*
%LPD*%
%LPC*%
G36*
X486911Y128839D02*
X486911Y128839D01*
X485709Y130041D01*
X485709Y146819D01*
X486911Y148021D01*
X503689Y148021D01*
X504891Y146819D01*
X504891Y130041D01*
X503689Y128839D01*
X486911Y128839D01*
G37*
%LPD*%
%LPC*%
G36*
X525011Y118209D02*
X525011Y118209D01*
X523809Y119411D01*
X523809Y136189D01*
X525011Y137391D01*
X541789Y137391D01*
X542991Y136189D01*
X542991Y119411D01*
X541789Y118209D01*
X525011Y118209D01*
G37*
%LPD*%
%LPC*%
G36*
X486911Y205039D02*
X486911Y205039D01*
X485709Y206241D01*
X485709Y223019D01*
X486911Y224221D01*
X503689Y224221D01*
X504891Y223019D01*
X504891Y206241D01*
X503689Y205039D01*
X486911Y205039D01*
G37*
%LPD*%
%LPC*%
G36*
X424411Y42369D02*
X424411Y42369D01*
X423209Y43571D01*
X423209Y58349D01*
X424411Y59551D01*
X439189Y59551D01*
X440391Y58349D01*
X440391Y43571D01*
X439189Y42369D01*
X424411Y42369D01*
G37*
%LPD*%
%LPC*%
G36*
X424411Y245569D02*
X424411Y245569D01*
X423209Y246771D01*
X423209Y261549D01*
X424411Y262751D01*
X439189Y262751D01*
X440391Y261549D01*
X440391Y246771D01*
X439189Y245569D01*
X424411Y245569D01*
G37*
%LPD*%
%LPC*%
G36*
X606015Y42145D02*
X606015Y42145D01*
X600945Y47215D01*
X600945Y54385D01*
X606015Y59455D01*
X613185Y59455D01*
X618255Y54385D01*
X618255Y47215D01*
X613185Y42145D01*
X606015Y42145D01*
G37*
%LPD*%
%LPC*%
G36*
X415515Y207245D02*
X415515Y207245D01*
X410445Y212315D01*
X410445Y219485D01*
X415515Y224555D01*
X422685Y224555D01*
X427755Y219485D01*
X427755Y212315D01*
X422685Y207245D01*
X415515Y207245D01*
G37*
%LPD*%
%LPC*%
G36*
X326642Y42369D02*
X326642Y42369D01*
X321609Y47402D01*
X321609Y54518D01*
X326642Y59551D01*
X333758Y59551D01*
X338791Y54518D01*
X338791Y47402D01*
X333758Y42369D01*
X326642Y42369D01*
G37*
%LPD*%
%LPC*%
G36*
X352042Y42369D02*
X352042Y42369D01*
X347009Y47402D01*
X347009Y54518D01*
X352042Y59551D01*
X359158Y59551D01*
X364191Y54518D01*
X364191Y47402D01*
X359158Y42369D01*
X352042Y42369D01*
G37*
%LPD*%
%LPC*%
G36*
X123442Y42369D02*
X123442Y42369D01*
X118409Y47402D01*
X118409Y54518D01*
X123442Y59551D01*
X130558Y59551D01*
X135591Y54518D01*
X135591Y47402D01*
X130558Y42369D01*
X123442Y42369D01*
G37*
%LPD*%
%LPC*%
G36*
X301242Y42369D02*
X301242Y42369D01*
X296209Y47402D01*
X296209Y54518D01*
X301242Y59551D01*
X308358Y59551D01*
X313391Y54518D01*
X313391Y47402D01*
X308358Y42369D01*
X301242Y42369D01*
G37*
%LPD*%
%LPC*%
G36*
X199642Y42369D02*
X199642Y42369D01*
X194609Y47402D01*
X194609Y54518D01*
X199642Y59551D01*
X206758Y59551D01*
X211791Y54518D01*
X211791Y47402D01*
X206758Y42369D01*
X199642Y42369D01*
G37*
%LPD*%
%LPC*%
G36*
X199642Y296209D02*
X199642Y296209D01*
X194609Y301242D01*
X194609Y308358D01*
X199642Y313391D01*
X206758Y313391D01*
X211791Y308358D01*
X211791Y301242D01*
X206758Y296209D01*
X199642Y296209D01*
G37*
%LPD*%
%LPC*%
G36*
X428242Y67609D02*
X428242Y67609D01*
X423209Y72642D01*
X423209Y79758D01*
X428242Y84791D01*
X435358Y84791D01*
X440391Y79758D01*
X440391Y72642D01*
X435358Y67609D01*
X428242Y67609D01*
G37*
%LPD*%
%LPC*%
G36*
X377442Y67609D02*
X377442Y67609D01*
X372409Y72642D01*
X372409Y79758D01*
X377442Y84791D01*
X384558Y84791D01*
X389591Y79758D01*
X389591Y72642D01*
X384558Y67609D01*
X377442Y67609D01*
G37*
%LPD*%
%LPC*%
G36*
X352042Y296209D02*
X352042Y296209D01*
X347009Y301242D01*
X347009Y308358D01*
X352042Y313391D01*
X359158Y313391D01*
X364191Y308358D01*
X364191Y301242D01*
X359158Y296209D01*
X352042Y296209D01*
G37*
%LPD*%
%LPC*%
G36*
X250442Y296209D02*
X250442Y296209D01*
X245409Y301242D01*
X245409Y308358D01*
X250442Y313391D01*
X257558Y313391D01*
X262591Y308358D01*
X262591Y301242D01*
X257558Y296209D01*
X250442Y296209D01*
G37*
%LPD*%
%LPC*%
G36*
X301242Y245569D02*
X301242Y245569D01*
X296209Y250602D01*
X296209Y257718D01*
X301242Y262751D01*
X308358Y262751D01*
X313391Y257718D01*
X313391Y250602D01*
X308358Y245569D01*
X301242Y245569D01*
G37*
%LPD*%
%LPC*%
G36*
X275842Y245569D02*
X275842Y245569D01*
X270809Y250602D01*
X270809Y257718D01*
X275842Y262751D01*
X282958Y262751D01*
X287991Y257718D01*
X287991Y250602D01*
X282958Y245569D01*
X275842Y245569D01*
G37*
%LPD*%
%LPC*%
G36*
X250442Y245569D02*
X250442Y245569D01*
X245409Y250602D01*
X245409Y257718D01*
X250442Y262751D01*
X257558Y262751D01*
X262591Y257718D01*
X262591Y250602D01*
X257558Y245569D01*
X250442Y245569D01*
G37*
%LPD*%
%LPC*%
G36*
X225042Y245569D02*
X225042Y245569D01*
X220009Y250602D01*
X220009Y257718D01*
X225042Y262751D01*
X232158Y262751D01*
X237191Y257718D01*
X237191Y250602D01*
X232158Y245569D01*
X225042Y245569D01*
G37*
%LPD*%
%LPC*%
G36*
X174242Y245569D02*
X174242Y245569D01*
X169209Y250602D01*
X169209Y257718D01*
X174242Y262751D01*
X181358Y262751D01*
X186391Y257718D01*
X186391Y250602D01*
X181358Y245569D01*
X174242Y245569D01*
G37*
%LPD*%
%LPC*%
G36*
X148842Y245569D02*
X148842Y245569D01*
X143809Y250602D01*
X143809Y257718D01*
X148842Y262751D01*
X155958Y262751D01*
X160991Y257718D01*
X160991Y250602D01*
X155958Y245569D01*
X148842Y245569D01*
G37*
%LPD*%
%LPC*%
G36*
X123442Y245569D02*
X123442Y245569D01*
X118409Y250602D01*
X118409Y257718D01*
X123442Y262751D01*
X130558Y262751D01*
X135591Y257718D01*
X135591Y250602D01*
X130558Y245569D01*
X123442Y245569D01*
G37*
%LPD*%
%LPC*%
G36*
X352042Y67609D02*
X352042Y67609D01*
X347009Y72642D01*
X347009Y79758D01*
X352042Y84791D01*
X359158Y84791D01*
X364191Y79758D01*
X364191Y72642D01*
X359158Y67609D01*
X352042Y67609D01*
G37*
%LPD*%
%LPC*%
G36*
X377442Y296209D02*
X377442Y296209D01*
X372409Y301242D01*
X372409Y308358D01*
X377442Y313391D01*
X384558Y313391D01*
X389591Y308358D01*
X389591Y301242D01*
X384558Y296209D01*
X377442Y296209D01*
G37*
%LPD*%
%LPC*%
G36*
X174242Y296209D02*
X174242Y296209D01*
X169209Y301242D01*
X169209Y308358D01*
X174242Y313391D01*
X181358Y313391D01*
X186391Y308358D01*
X186391Y301242D01*
X181358Y296209D01*
X174242Y296209D01*
G37*
%LPD*%
%LPC*%
G36*
X174242Y42369D02*
X174242Y42369D01*
X169209Y47402D01*
X169209Y54518D01*
X174242Y59551D01*
X181358Y59551D01*
X186391Y54518D01*
X186391Y47402D01*
X181358Y42369D01*
X174242Y42369D01*
G37*
%LPD*%
%LPC*%
G36*
X148842Y42369D02*
X148842Y42369D01*
X143809Y47402D01*
X143809Y54518D01*
X148842Y59551D01*
X155958Y59551D01*
X160991Y54518D01*
X160991Y47402D01*
X155958Y42369D01*
X148842Y42369D01*
G37*
%LPD*%
%LPC*%
G36*
X326642Y67609D02*
X326642Y67609D01*
X321609Y72642D01*
X321609Y79758D01*
X326642Y84791D01*
X333758Y84791D01*
X338791Y79758D01*
X338791Y72642D01*
X333758Y67609D01*
X326642Y67609D01*
G37*
%LPD*%
%LPC*%
G36*
X301242Y67609D02*
X301242Y67609D01*
X296209Y72642D01*
X296209Y79758D01*
X301242Y84791D01*
X308358Y84791D01*
X313391Y79758D01*
X313391Y72642D01*
X308358Y67609D01*
X301242Y67609D01*
G37*
%LPD*%
%LPC*%
G36*
X148842Y296209D02*
X148842Y296209D01*
X143809Y301242D01*
X143809Y308358D01*
X148842Y313391D01*
X155958Y313391D01*
X160991Y308358D01*
X160991Y301242D01*
X155958Y296209D01*
X148842Y296209D01*
G37*
%LPD*%
%LPC*%
G36*
X123442Y296209D02*
X123442Y296209D01*
X118409Y301242D01*
X118409Y308358D01*
X123442Y313391D01*
X130558Y313391D01*
X135591Y308358D01*
X135591Y301242D01*
X130558Y296209D01*
X123442Y296209D01*
G37*
%LPD*%
%LPC*%
G36*
X199642Y67609D02*
X199642Y67609D01*
X194609Y72642D01*
X194609Y79758D01*
X199642Y84791D01*
X206758Y84791D01*
X211791Y79758D01*
X211791Y72642D01*
X206758Y67609D01*
X199642Y67609D01*
G37*
%LPD*%
%LPC*%
G36*
X174242Y67609D02*
X174242Y67609D01*
X169209Y72642D01*
X169209Y79758D01*
X174242Y84791D01*
X181358Y84791D01*
X186391Y79758D01*
X186391Y72642D01*
X181358Y67609D01*
X174242Y67609D01*
G37*
%LPD*%
%LPC*%
G36*
X148842Y67609D02*
X148842Y67609D01*
X143809Y72642D01*
X143809Y79758D01*
X148842Y84791D01*
X155958Y84791D01*
X160991Y79758D01*
X160991Y72642D01*
X155958Y67609D01*
X148842Y67609D01*
G37*
%LPD*%
%LPC*%
G36*
X123442Y67609D02*
X123442Y67609D01*
X118409Y72642D01*
X118409Y79758D01*
X123442Y84791D01*
X130558Y84791D01*
X135591Y79758D01*
X135591Y72642D01*
X130558Y67609D01*
X123442Y67609D01*
G37*
%LPD*%
%LPC*%
G36*
X225042Y296209D02*
X225042Y296209D01*
X220009Y301242D01*
X220009Y308358D01*
X225042Y313391D01*
X232158Y313391D01*
X237191Y308358D01*
X237191Y301242D01*
X232158Y296209D01*
X225042Y296209D01*
G37*
%LPD*%
%LPC*%
G36*
X301242Y296209D02*
X301242Y296209D01*
X296209Y301242D01*
X296209Y308358D01*
X301242Y313391D01*
X308358Y313391D01*
X313391Y308358D01*
X313391Y301242D01*
X308358Y296209D01*
X301242Y296209D01*
G37*
%LPD*%
%LPC*%
G36*
X199642Y245569D02*
X199642Y245569D01*
X194609Y250602D01*
X194609Y257718D01*
X199642Y262751D01*
X206758Y262751D01*
X211791Y257718D01*
X211791Y250602D01*
X206758Y245569D01*
X199642Y245569D01*
G37*
%LPD*%
%LPC*%
G36*
X275842Y296209D02*
X275842Y296209D01*
X270809Y301242D01*
X270809Y308358D01*
X275842Y313391D01*
X282958Y313391D01*
X287991Y308358D01*
X287991Y301242D01*
X282958Y296209D01*
X275842Y296209D01*
G37*
%LPD*%
%LPC*%
G36*
X391978Y105645D02*
X391978Y105645D01*
X388797Y106963D01*
X386363Y109397D01*
X385045Y112578D01*
X385045Y116022D01*
X386363Y119203D01*
X388797Y121637D01*
X391978Y122955D01*
X395422Y122955D01*
X398603Y121637D01*
X401037Y119203D01*
X402355Y116022D01*
X402355Y112578D01*
X401037Y109397D01*
X398603Y106963D01*
X395422Y105645D01*
X391978Y105645D01*
G37*
%LPD*%
%LPC*%
G36*
X959216Y42609D02*
X959216Y42609D01*
X958569Y42782D01*
X957990Y43117D01*
X957517Y43590D01*
X957182Y44169D01*
X957009Y44816D01*
X957009Y55627D01*
X970027Y55627D01*
X970027Y42609D01*
X959216Y42609D01*
G37*
%LPD*%
%LPC*%
G36*
X598423Y141223D02*
X598423Y141223D01*
X598423Y149861D01*
X605320Y149861D01*
X606899Y149611D01*
X608420Y149116D01*
X609845Y148390D01*
X611139Y147450D01*
X612270Y146319D01*
X613210Y145025D01*
X613936Y143600D01*
X614431Y142079D01*
X614566Y141223D01*
X598423Y141223D01*
G37*
%LPD*%
%LPC*%
G36*
X579234Y141223D02*
X579234Y141223D01*
X579369Y142079D01*
X579864Y143600D01*
X580590Y145025D01*
X581530Y146319D01*
X582661Y147450D01*
X583955Y148390D01*
X585380Y149116D01*
X586901Y149611D01*
X588480Y149861D01*
X595377Y149861D01*
X595377Y141223D01*
X579234Y141223D01*
G37*
%LPD*%
%LPC*%
G36*
X598423Y129539D02*
X598423Y129539D01*
X598423Y138177D01*
X614566Y138177D01*
X614431Y137321D01*
X613936Y135800D01*
X613210Y134375D01*
X612270Y133081D01*
X611139Y131950D01*
X609845Y131010D01*
X608420Y130284D01*
X606899Y129789D01*
X605320Y129539D01*
X598423Y129539D01*
G37*
%LPD*%
%LPC*%
G36*
X588480Y129539D02*
X588480Y129539D01*
X586901Y129789D01*
X585380Y130284D01*
X583955Y131010D01*
X582661Y131950D01*
X581530Y133081D01*
X580590Y134375D01*
X579864Y135800D01*
X579369Y137321D01*
X579234Y138177D01*
X595377Y138177D01*
X595377Y129539D01*
X588480Y129539D01*
G37*
%LPD*%
%LPC*%
G36*
X192023Y128523D02*
X192023Y128523D01*
X192023Y136145D01*
X198005Y136145D01*
X199771Y135793D01*
X201436Y135104D01*
X202934Y134103D01*
X204207Y132830D01*
X205208Y131332D01*
X205897Y129667D01*
X206125Y128523D01*
X192023Y128523D01*
G37*
%LPD*%
%LPC*%
G36*
X192023Y204723D02*
X192023Y204723D01*
X192023Y212345D01*
X198005Y212345D01*
X199771Y211993D01*
X201436Y211304D01*
X202934Y210303D01*
X204207Y209030D01*
X205208Y207532D01*
X205897Y205867D01*
X206125Y204723D01*
X192023Y204723D01*
G37*
%LPD*%
%LPC*%
G36*
X192023Y153923D02*
X192023Y153923D01*
X192023Y161545D01*
X198005Y161545D01*
X199771Y161193D01*
X201436Y160504D01*
X202934Y159503D01*
X204207Y158230D01*
X205208Y156732D01*
X205897Y155067D01*
X206125Y153923D01*
X192023Y153923D01*
G37*
%LPD*%
%LPC*%
G36*
X192023Y179323D02*
X192023Y179323D01*
X192023Y186945D01*
X198005Y186945D01*
X199771Y186593D01*
X201436Y185904D01*
X202934Y184903D01*
X204207Y183630D01*
X205208Y182132D01*
X205897Y180467D01*
X206125Y179323D01*
X192023Y179323D01*
G37*
%LPD*%
%LPC*%
G36*
X174875Y204723D02*
X174875Y204723D01*
X175103Y205867D01*
X175792Y207532D01*
X176793Y209030D01*
X178066Y210303D01*
X179564Y211304D01*
X181229Y211993D01*
X182995Y212345D01*
X188977Y212345D01*
X188977Y204723D01*
X174875Y204723D01*
G37*
%LPD*%
%LPC*%
G36*
X174875Y153923D02*
X174875Y153923D01*
X175103Y155067D01*
X175792Y156732D01*
X176793Y158230D01*
X178066Y159503D01*
X179564Y160504D01*
X181229Y161193D01*
X182995Y161545D01*
X188977Y161545D01*
X188977Y153923D01*
X174875Y153923D01*
G37*
%LPD*%
%LPC*%
G36*
X174875Y128523D02*
X174875Y128523D01*
X175103Y129667D01*
X175792Y131332D01*
X176793Y132830D01*
X178066Y134103D01*
X179564Y135104D01*
X181229Y135793D01*
X182995Y136145D01*
X188977Y136145D01*
X188977Y128523D01*
X174875Y128523D01*
G37*
%LPD*%
%LPC*%
G36*
X174875Y179323D02*
X174875Y179323D01*
X175103Y180467D01*
X175792Y182132D01*
X176793Y183630D01*
X178066Y184903D01*
X179564Y185904D01*
X181229Y186593D01*
X182995Y186945D01*
X188977Y186945D01*
X188977Y179323D01*
X174875Y179323D01*
G37*
%LPD*%
%LPC*%
G36*
X192023Y194055D02*
X192023Y194055D01*
X192023Y201677D01*
X206125Y201677D01*
X205897Y200533D01*
X205208Y198868D01*
X204207Y197370D01*
X202934Y196097D01*
X201436Y195096D01*
X199771Y194407D01*
X198005Y194055D01*
X192023Y194055D01*
G37*
%LPD*%
%LPC*%
G36*
X192023Y117855D02*
X192023Y117855D01*
X192023Y125477D01*
X206125Y125477D01*
X205897Y124333D01*
X205208Y122668D01*
X204207Y121170D01*
X202934Y119897D01*
X201436Y118896D01*
X199771Y118207D01*
X198005Y117855D01*
X192023Y117855D01*
G37*
%LPD*%
%LPC*%
G36*
X192023Y168655D02*
X192023Y168655D01*
X192023Y176277D01*
X206125Y176277D01*
X205897Y175133D01*
X205208Y173468D01*
X204207Y171970D01*
X202934Y170697D01*
X201436Y169696D01*
X199771Y169007D01*
X198005Y168655D01*
X192023Y168655D01*
G37*
%LPD*%
%LPC*%
G36*
X192023Y143255D02*
X192023Y143255D01*
X192023Y150877D01*
X206125Y150877D01*
X205897Y149733D01*
X205208Y148068D01*
X204207Y146570D01*
X202934Y145297D01*
X201436Y144296D01*
X199771Y143607D01*
X198005Y143255D01*
X192023Y143255D01*
G37*
%LPD*%
%LPC*%
G36*
X182995Y168655D02*
X182995Y168655D01*
X181229Y169007D01*
X179564Y169696D01*
X178066Y170697D01*
X176793Y171970D01*
X175792Y173468D01*
X175103Y175133D01*
X174875Y176277D01*
X188977Y176277D01*
X188977Y168655D01*
X182995Y168655D01*
G37*
%LPD*%
%LPC*%
G36*
X182995Y194055D02*
X182995Y194055D01*
X181229Y194407D01*
X179564Y195096D01*
X178066Y196097D01*
X176793Y197370D01*
X175792Y198868D01*
X175103Y200533D01*
X174875Y201677D01*
X188977Y201677D01*
X188977Y194055D01*
X182995Y194055D01*
G37*
%LPD*%
%LPC*%
G36*
X182995Y117855D02*
X182995Y117855D01*
X181229Y118207D01*
X179564Y118896D01*
X178066Y119897D01*
X176793Y121170D01*
X175792Y122668D01*
X175103Y124333D01*
X174875Y125477D01*
X188977Y125477D01*
X188977Y117855D01*
X182995Y117855D01*
G37*
%LPD*%
%LPC*%
G36*
X182995Y143255D02*
X182995Y143255D01*
X181229Y143607D01*
X179564Y144296D01*
X178066Y145297D01*
X176793Y146570D01*
X175792Y148068D01*
X175103Y149733D01*
X174875Y150877D01*
X188977Y150877D01*
X188977Y143255D01*
X182995Y143255D01*
G37*
%LPD*%
%LPC*%
G36*
X637793Y280923D02*
X637793Y280923D01*
X637793Y289561D01*
X640479Y289561D01*
X646431Y283609D01*
X646431Y280923D01*
X637793Y280923D01*
G37*
%LPD*%
%LPC*%
G36*
X626109Y280923D02*
X626109Y280923D01*
X626109Y283609D01*
X632061Y289561D01*
X634747Y289561D01*
X634747Y280923D01*
X626109Y280923D01*
G37*
%LPD*%
%LPC*%
G36*
X637793Y269239D02*
X637793Y269239D01*
X637793Y277877D01*
X646431Y277877D01*
X646431Y275191D01*
X640479Y269239D01*
X637793Y269239D01*
G37*
%LPD*%
%LPC*%
G36*
X632061Y269239D02*
X632061Y269239D01*
X626109Y275191D01*
X626109Y277877D01*
X634747Y277877D01*
X634747Y269239D01*
X632061Y269239D01*
G37*
%LPD*%
%LPC*%
G36*
X458723Y306323D02*
X458723Y306323D01*
X458723Y313881D01*
X464074Y313881D01*
X464721Y313708D01*
X465300Y313373D01*
X465773Y312900D01*
X466108Y312321D01*
X466281Y311674D01*
X466281Y306323D01*
X458723Y306323D01*
G37*
%LPD*%
%LPC*%
G36*
X458723Y77723D02*
X458723Y77723D01*
X458723Y85281D01*
X464074Y85281D01*
X464721Y85108D01*
X465300Y84773D01*
X465773Y84300D01*
X466108Y83721D01*
X466281Y83074D01*
X466281Y77723D01*
X458723Y77723D01*
G37*
%LPD*%
%LPC*%
G36*
X448119Y306323D02*
X448119Y306323D01*
X448119Y311674D01*
X448292Y312321D01*
X448627Y312900D01*
X449100Y313373D01*
X449679Y313708D01*
X450326Y313881D01*
X455677Y313881D01*
X455677Y306323D01*
X448119Y306323D01*
G37*
%LPD*%
%LPC*%
G36*
X448119Y77723D02*
X448119Y77723D01*
X448119Y83074D01*
X448292Y83721D01*
X448627Y84300D01*
X449100Y84773D01*
X449679Y85108D01*
X450326Y85281D01*
X455677Y85281D01*
X455677Y77723D01*
X448119Y77723D01*
G37*
%LPD*%
%LPC*%
G36*
X458723Y67119D02*
X458723Y67119D01*
X458723Y74677D01*
X466281Y74677D01*
X466281Y69326D01*
X466108Y68679D01*
X465773Y68100D01*
X465300Y67627D01*
X464721Y67292D01*
X464074Y67119D01*
X458723Y67119D01*
G37*
%LPD*%
%LPC*%
G36*
X458723Y295719D02*
X458723Y295719D01*
X458723Y303277D01*
X466281Y303277D01*
X466281Y297926D01*
X466108Y297279D01*
X465773Y296700D01*
X465300Y296227D01*
X464721Y295892D01*
X464074Y295719D01*
X458723Y295719D01*
G37*
%LPD*%
%LPC*%
G36*
X450326Y67119D02*
X450326Y67119D01*
X449679Y67292D01*
X449100Y67627D01*
X448627Y68100D01*
X448292Y68679D01*
X448119Y69326D01*
X448119Y74677D01*
X455677Y74677D01*
X455677Y67119D01*
X450326Y67119D01*
G37*
%LPD*%
%LPC*%
G36*
X450326Y295719D02*
X450326Y295719D01*
X449679Y295892D01*
X449100Y296227D01*
X448627Y296700D01*
X448292Y297279D01*
X448119Y297926D01*
X448119Y303277D01*
X455677Y303277D01*
X455677Y295719D01*
X450326Y295719D01*
G37*
%LPD*%
%LPC*%
G36*
X395223Y136143D02*
X395223Y136143D01*
X395223Y143765D01*
X397488Y143765D01*
X402845Y138408D01*
X402845Y136143D01*
X395223Y136143D01*
G37*
%LPD*%
%LPC*%
G36*
X649223Y52323D02*
X649223Y52323D01*
X649223Y59945D01*
X651488Y59945D01*
X656845Y54588D01*
X656845Y52323D01*
X649223Y52323D01*
G37*
%LPD*%
%LPC*%
G36*
X560323Y52323D02*
X560323Y52323D01*
X560323Y59945D01*
X562588Y59945D01*
X567945Y54588D01*
X567945Y52323D01*
X560323Y52323D01*
G37*
%LPD*%
%LPC*%
G36*
X549655Y52323D02*
X549655Y52323D01*
X549655Y54588D01*
X555012Y59945D01*
X557277Y59945D01*
X557277Y52323D01*
X549655Y52323D01*
G37*
%LPD*%
%LPC*%
G36*
X384555Y136143D02*
X384555Y136143D01*
X384555Y138408D01*
X389912Y143765D01*
X392177Y143765D01*
X392177Y136143D01*
X384555Y136143D01*
G37*
%LPD*%
%LPC*%
G36*
X395223Y125475D02*
X395223Y125475D01*
X395223Y133097D01*
X402845Y133097D01*
X402845Y130832D01*
X397488Y125475D01*
X395223Y125475D01*
G37*
%LPD*%
%LPC*%
G36*
X560323Y41655D02*
X560323Y41655D01*
X560323Y49277D01*
X567945Y49277D01*
X567945Y47012D01*
X562588Y41655D01*
X560323Y41655D01*
G37*
%LPD*%
%LPC*%
G36*
X649223Y41655D02*
X649223Y41655D01*
X649223Y49277D01*
X656845Y49277D01*
X656845Y47012D01*
X651488Y41655D01*
X649223Y41655D01*
G37*
%LPD*%
%LPC*%
G36*
X638555Y52323D02*
X638555Y52323D01*
X638555Y54588D01*
X643912Y59945D01*
X646177Y59945D01*
X646177Y52323D01*
X638555Y52323D01*
G37*
%LPD*%
%LPC*%
G36*
X389912Y125475D02*
X389912Y125475D01*
X384555Y130832D01*
X384555Y133097D01*
X392177Y133097D01*
X392177Y125475D01*
X389912Y125475D01*
G37*
%LPD*%
%LPC*%
G36*
X643912Y41655D02*
X643912Y41655D01*
X638555Y47012D01*
X638555Y49277D01*
X646177Y49277D01*
X646177Y41655D01*
X643912Y41655D01*
G37*
%LPD*%
%LPC*%
G36*
X555012Y41655D02*
X555012Y41655D01*
X549655Y47012D01*
X549655Y49277D01*
X557277Y49277D01*
X557277Y41655D01*
X555012Y41655D01*
G37*
%LPD*%
%LPC*%
G36*
X382523Y52483D02*
X382523Y52483D01*
X382523Y60041D01*
X384761Y60041D01*
X390081Y54721D01*
X390081Y52483D01*
X382523Y52483D01*
G37*
%LPD*%
%LPC*%
G36*
X407923Y255683D02*
X407923Y255683D01*
X407923Y263241D01*
X410161Y263241D01*
X415481Y257921D01*
X415481Y255683D01*
X407923Y255683D01*
G37*
%LPD*%
%LPC*%
G36*
X371919Y52483D02*
X371919Y52483D01*
X371919Y54721D01*
X377239Y60041D01*
X379477Y60041D01*
X379477Y52483D01*
X371919Y52483D01*
G37*
%LPD*%
%LPC*%
G36*
X382523Y41879D02*
X382523Y41879D01*
X382523Y49437D01*
X390081Y49437D01*
X390081Y47199D01*
X384761Y41879D01*
X382523Y41879D01*
G37*
%LPD*%
%LPC*%
G36*
X407923Y245079D02*
X407923Y245079D01*
X407923Y252637D01*
X415481Y252637D01*
X415481Y250399D01*
X410161Y245079D01*
X407923Y245079D01*
G37*
%LPD*%
%LPC*%
G36*
X377239Y41879D02*
X377239Y41879D01*
X371919Y47199D01*
X371919Y49437D01*
X379477Y49437D01*
X379477Y41879D01*
X377239Y41879D01*
G37*
%LPD*%
%LPC*%
G36*
X687323Y52323D02*
X687323Y52323D01*
X687323Y59821D01*
X688467Y59593D01*
X690132Y58904D01*
X691630Y57903D01*
X692903Y56630D01*
X693904Y55132D01*
X694593Y53467D01*
X694821Y52323D01*
X687323Y52323D01*
G37*
%LPD*%
%LPC*%
G36*
X676779Y52323D02*
X676779Y52323D01*
X677007Y53467D01*
X677696Y55132D01*
X678697Y56630D01*
X679970Y57903D01*
X681468Y58904D01*
X683133Y59593D01*
X684277Y59821D01*
X684277Y52323D01*
X676779Y52323D01*
G37*
%LPD*%
%LPC*%
G36*
X687323Y49277D02*
X687323Y49277D01*
X694821Y49277D01*
X694593Y48133D01*
X693904Y46468D01*
X692903Y44970D01*
X691630Y43697D01*
X690132Y42696D01*
X688467Y42007D01*
X687323Y41779D01*
X687323Y49277D01*
G37*
%LPD*%
%LPC*%
G36*
X683133Y42007D02*
X683133Y42007D01*
X681468Y42696D01*
X679970Y43697D01*
X678697Y44970D01*
X677696Y46468D01*
X677007Y48133D01*
X676779Y49277D01*
X684277Y49277D01*
X684277Y41779D01*
X683133Y42007D01*
G37*
%LPD*%
%LPC*%
G36*
X159003Y179323D02*
X159003Y179323D01*
X159003Y186691D01*
X160989Y186691D01*
X161636Y186518D01*
X162215Y186183D01*
X162688Y185710D01*
X163023Y185131D01*
X163196Y184484D01*
X163196Y179323D01*
X159003Y179323D01*
G37*
%LPD*%
%LPC*%
G36*
X159003Y128523D02*
X159003Y128523D01*
X159003Y135891D01*
X160989Y135891D01*
X161636Y135718D01*
X162215Y135383D01*
X162688Y134910D01*
X163023Y134331D01*
X163196Y133684D01*
X163196Y128523D01*
X159003Y128523D01*
G37*
%LPD*%
%LPC*%
G36*
X159003Y153923D02*
X159003Y153923D01*
X159003Y161291D01*
X160989Y161291D01*
X161636Y161118D01*
X162215Y160783D01*
X162688Y160310D01*
X163023Y159731D01*
X163196Y159084D01*
X163196Y153923D01*
X159003Y153923D01*
G37*
%LPD*%
%LPC*%
G36*
X159003Y204723D02*
X159003Y204723D01*
X159003Y212091D01*
X160989Y212091D01*
X161636Y211918D01*
X162215Y211583D01*
X162688Y211110D01*
X163023Y210531D01*
X163196Y209884D01*
X163196Y204723D01*
X159003Y204723D01*
G37*
%LPD*%
%LPC*%
G36*
X159003Y143509D02*
X159003Y143509D01*
X159003Y150877D01*
X163196Y150877D01*
X163196Y145716D01*
X163023Y145069D01*
X162688Y144490D01*
X162215Y144017D01*
X161636Y143682D01*
X160989Y143509D01*
X159003Y143509D01*
G37*
%LPD*%
%LPC*%
G36*
X159003Y168909D02*
X159003Y168909D01*
X159003Y176277D01*
X163196Y176277D01*
X163196Y171116D01*
X163023Y170469D01*
X162688Y169890D01*
X162215Y169417D01*
X161636Y169082D01*
X160989Y168909D01*
X159003Y168909D01*
G37*
%LPD*%
%LPC*%
G36*
X159003Y118109D02*
X159003Y118109D01*
X159003Y125477D01*
X163196Y125477D01*
X163196Y120316D01*
X163023Y119669D01*
X162688Y119090D01*
X162215Y118617D01*
X161636Y118282D01*
X160989Y118109D01*
X159003Y118109D01*
G37*
%LPD*%
%LPC*%
G36*
X159003Y194309D02*
X159003Y194309D01*
X159003Y201677D01*
X163196Y201677D01*
X163196Y196516D01*
X163023Y195869D01*
X162688Y195290D01*
X162215Y194817D01*
X161636Y194482D01*
X160989Y194309D01*
X159003Y194309D01*
G37*
%LPD*%
%LPC*%
G36*
X872114Y264920D02*
X872114Y264920D01*
X871095Y265939D01*
X889486Y265939D01*
X888467Y264920D01*
X872114Y264920D01*
G37*
%LPD*%
%LPC*%
G36*
X393699Y134619D02*
X393699Y134619D01*
X393699Y134621D01*
X393701Y134621D01*
X393701Y134619D01*
X393699Y134619D01*
G37*
%LPD*%
%LPC*%
G36*
X380999Y50959D02*
X380999Y50959D01*
X380999Y50961D01*
X381001Y50961D01*
X381001Y50959D01*
X380999Y50959D01*
G37*
%LPD*%
%LPC*%
G36*
X647699Y50799D02*
X647699Y50799D01*
X647699Y50801D01*
X647701Y50801D01*
X647701Y50799D01*
X647699Y50799D01*
G37*
%LPD*%
%LPC*%
G36*
X685799Y50799D02*
X685799Y50799D01*
X685799Y50801D01*
X685801Y50801D01*
X685801Y50799D01*
X685799Y50799D01*
G37*
%LPD*%
%LPC*%
G36*
X190499Y126999D02*
X190499Y126999D01*
X190499Y127001D01*
X190501Y127001D01*
X190501Y126999D01*
X190499Y126999D01*
G37*
%LPD*%
%LPC*%
G36*
X190499Y152399D02*
X190499Y152399D01*
X190499Y152401D01*
X190501Y152401D01*
X190501Y152399D01*
X190499Y152399D01*
G37*
%LPD*%
%LPC*%
G36*
X636269Y279399D02*
X636269Y279399D01*
X636269Y279401D01*
X636271Y279401D01*
X636271Y279399D01*
X636269Y279399D01*
G37*
%LPD*%
%LPC*%
G36*
X457199Y304799D02*
X457199Y304799D01*
X457199Y304801D01*
X457201Y304801D01*
X457201Y304799D01*
X457199Y304799D01*
G37*
%LPD*%
%LPC*%
G36*
X190499Y203199D02*
X190499Y203199D01*
X190499Y203201D01*
X190501Y203201D01*
X190501Y203199D01*
X190499Y203199D01*
G37*
%LPD*%
%LPC*%
G36*
X596899Y139699D02*
X596899Y139699D01*
X596899Y139701D01*
X596901Y139701D01*
X596901Y139699D01*
X596899Y139699D01*
G37*
%LPD*%
%LPC*%
G36*
X190499Y177799D02*
X190499Y177799D01*
X190499Y177801D01*
X190501Y177801D01*
X190501Y177799D01*
X190499Y177799D01*
G37*
%LPD*%
%LPC*%
G36*
X457199Y76199D02*
X457199Y76199D01*
X457199Y76201D01*
X457201Y76201D01*
X457201Y76199D01*
X457199Y76199D01*
G37*
%LPD*%
%LPC*%
G36*
X558799Y50799D02*
X558799Y50799D01*
X558799Y50801D01*
X558801Y50801D01*
X558801Y50799D01*
X558799Y50799D01*
G37*
%LPD*%
D10*
X393700Y134620D03*
D11*
X393700Y114300D03*
D12*
X786130Y279400D03*
X636270Y279400D03*
D13*
X673100Y228600D03*
X673100Y177800D03*
D14*
X762000Y152400D03*
X762000Y50800D03*
X723900Y50800D03*
X723900Y152400D03*
X800100Y152400D03*
X800100Y50800D03*
D13*
X939800Y304800D03*
X939800Y203200D03*
D10*
X977900Y203200D03*
X977900Y304800D03*
D15*
X876300Y177800D03*
X977900Y177800D03*
D16*
X609600Y50800D03*
X558800Y50800D03*
D17*
X495300Y138430D03*
X495300Y214630D03*
D18*
X289800Y195900D03*
X274800Y195900D03*
X259800Y195900D03*
X244800Y195900D03*
D19*
X120904Y203200D02*
X107696Y203200D01*
X107696Y177800D02*
X120904Y177800D01*
X120904Y152400D02*
X107696Y152400D01*
X107696Y127000D02*
X120904Y127000D01*
X183896Y127000D02*
X197104Y127000D01*
X197104Y152400D02*
X183896Y152400D01*
X183896Y177800D02*
X197104Y177800D01*
X197104Y203200D02*
X183896Y203200D01*
D20*
X971550Y57150D03*
D17*
X533400Y127800D03*
X533400Y227800D03*
D14*
X838200Y76200D03*
X838200Y177800D03*
D21*
X406400Y254160D03*
X381000Y254160D03*
X355600Y254160D03*
X330200Y254160D03*
X304800Y254160D03*
X279400Y254160D03*
X254000Y254160D03*
X228600Y254160D03*
X203200Y254160D03*
X177800Y254160D03*
X152400Y254160D03*
X127000Y254160D03*
X101600Y254160D03*
X76200Y254160D03*
X50800Y254160D03*
X25400Y254160D03*
X25400Y50960D03*
X50800Y50960D03*
X76200Y50960D03*
X101600Y50960D03*
X127000Y50960D03*
X152400Y50960D03*
X177800Y50960D03*
X203200Y50960D03*
X228600Y50960D03*
X254000Y50960D03*
X279400Y50960D03*
X304800Y50960D03*
X330200Y50960D03*
X355600Y50960D03*
X381000Y50960D03*
X406400Y50960D03*
D22*
X431800Y254160D03*
X431800Y50960D03*
D11*
X685800Y152400D03*
X685800Y50800D03*
D16*
X419100Y215900D03*
X317500Y215900D03*
D10*
X647700Y50800D03*
X647700Y152400D03*
D22*
X457200Y304800D03*
D21*
X431800Y304800D03*
X406400Y304800D03*
X381000Y304800D03*
X355600Y304800D03*
X330200Y304800D03*
X304800Y304800D03*
X279400Y304800D03*
X254000Y304800D03*
X228600Y304800D03*
X203200Y304800D03*
X177800Y304800D03*
X152400Y304800D03*
X127000Y304800D03*
X101600Y304800D03*
X76200Y304800D03*
X50800Y304800D03*
X25400Y304800D03*
X25400Y76200D03*
X50800Y76200D03*
X76200Y76200D03*
X101600Y76200D03*
X127000Y76200D03*
X152400Y76200D03*
X177800Y76200D03*
X203200Y76200D03*
X228600Y76200D03*
X254000Y76200D03*
X279400Y76200D03*
X304800Y76200D03*
X330200Y76200D03*
X355600Y76200D03*
X381000Y76200D03*
X406400Y76200D03*
X431800Y76200D03*
D22*
X457200Y76200D03*
D23*
X880291Y284661D03*
X844369Y248739D03*
D24*
X604520Y241300D02*
X589280Y241300D01*
X589280Y215900D02*
X604520Y215900D01*
X604520Y190500D02*
X589280Y190500D01*
X589280Y165100D02*
X604520Y165100D01*
X604520Y139700D02*
X589280Y139700D01*
D20*
X908700Y120650D03*
X984900Y120650D03*
D25*
X157480Y127000D03*
X147320Y127000D03*
D26*
X152400Y127000D03*
D25*
X157480Y152400D03*
X147320Y152400D03*
D26*
X152400Y152400D03*
D25*
X157480Y177800D03*
X147320Y177800D03*
D26*
X152400Y177800D03*
D25*
X157480Y203200D03*
X147320Y203200D03*
D26*
X152400Y203200D03*
D27*
X279400Y76200D02*
X279400Y50960D01*
X254000Y76200D02*
X254000Y88900D01*
X266700Y101600D01*
X317500Y101600D01*
D28*
X317500Y101600D03*
D27*
X50800Y215900D02*
X50800Y254160D01*
X50800Y215900D02*
X114300Y152400D01*
X147320Y152400D01*
X76200Y203200D02*
X76200Y254160D01*
X76200Y203200D02*
X101600Y177800D01*
X114300Y177800D01*
X147320Y177800D01*
X147320Y203200D02*
X114300Y203200D01*
D28*
X342900Y228600D03*
D27*
X342900Y292100D01*
X330200Y304800D01*
D28*
X558800Y203200D03*
D27*
X558800Y177800D01*
X571500Y165100D01*
X596900Y165100D01*
D28*
X368300Y292100D03*
D27*
X381000Y279400D01*
X381000Y254160D01*
D28*
X711200Y177800D03*
D27*
X25400Y228600D02*
X25400Y254160D01*
X25400Y228600D02*
X88900Y165100D01*
X88900Y139700D01*
X101600Y127000D01*
X114300Y127000D01*
X147320Y127000D01*
D28*
X546100Y165100D03*
D29*
X558800Y241300D02*
X596900Y241300D01*
X558800Y241300D02*
X546100Y228600D01*
X546100Y165100D01*
D28*
X863600Y317500D03*
D29*
X880291Y300810D02*
X880291Y284661D01*
X880291Y300810D02*
X863600Y317500D01*
D27*
X482600Y254000D02*
X431800Y304800D01*
X482600Y254000D02*
X546100Y254000D01*
X558800Y241300D01*
X246659Y32742D02*
X246658Y32742D01*
X241300Y38100D01*
X279404Y32738D02*
X388178Y32738D01*
X393620Y38180D01*
X406400Y50960D01*
X406400Y76200D01*
X279404Y32738D02*
X246659Y32742D01*
X246658Y32742D02*
X43458Y32742D01*
X38100Y38100D01*
X38100Y114300D01*
D28*
X38100Y114300D03*
D27*
X241300Y192400D02*
X244800Y195900D01*
X241300Y192400D02*
X241300Y38100D01*
X244800Y206700D02*
X254000Y215900D01*
X244800Y206700D02*
X244800Y195900D01*
X254000Y215900D02*
X317500Y215900D01*
X393700Y292100D02*
X406400Y304800D01*
X393700Y292100D02*
X393700Y228600D01*
X381000Y215900D01*
X317500Y215900D01*
M02*
