G04 EAGLE Gerber RS-274X export*
G75*
%MOMM*%
%FSLAX34Y34*%
%LPD*%
%IN*%
%IPPOS*%
%AMOC8*
5,1,8,0,0,1.08239X$1,22.5*%
G01*
%ADD10C,0.254000*%


D10*
X0Y20750D02*
X999830Y20020D01*
X999830Y339440D01*
X0Y339440D01*
X0Y20750D01*
X52500Y169509D02*
X52423Y168530D01*
X52269Y167560D01*
X52040Y166604D01*
X51736Y165670D01*
X51361Y164763D01*
X50915Y163888D01*
X50401Y163050D01*
X49824Y162255D01*
X49186Y161508D01*
X48492Y160814D01*
X47745Y160176D01*
X46950Y159599D01*
X46112Y159085D01*
X45237Y158639D01*
X44330Y158264D01*
X43396Y157960D01*
X42441Y157731D01*
X41470Y157577D01*
X40491Y157500D01*
X39509Y157500D01*
X38530Y157577D01*
X37560Y157731D01*
X36604Y157960D01*
X35670Y158264D01*
X34763Y158639D01*
X33888Y159085D01*
X33050Y159599D01*
X32255Y160176D01*
X31508Y160814D01*
X30814Y161508D01*
X30176Y162255D01*
X29599Y163050D01*
X29085Y163888D01*
X28639Y164763D01*
X28264Y165670D01*
X27960Y166604D01*
X27731Y167560D01*
X27577Y168530D01*
X27500Y169509D01*
X27500Y170491D01*
X27577Y171470D01*
X27731Y172441D01*
X27960Y173396D01*
X28264Y174330D01*
X28639Y175237D01*
X29085Y176112D01*
X29599Y176950D01*
X30176Y177745D01*
X30814Y178492D01*
X31508Y179186D01*
X32255Y179824D01*
X33050Y180401D01*
X33888Y180915D01*
X34763Y181361D01*
X35670Y181736D01*
X36604Y182040D01*
X37560Y182269D01*
X38530Y182423D01*
X39509Y182500D01*
X40491Y182500D01*
X41470Y182423D01*
X42441Y182269D01*
X43396Y182040D01*
X44330Y181736D01*
X45237Y181361D01*
X46112Y180915D01*
X46950Y180401D01*
X47745Y179824D01*
X48492Y179186D01*
X49186Y178492D01*
X49824Y177745D01*
X50401Y176950D01*
X50915Y176112D01*
X51361Y175237D01*
X51736Y174330D01*
X52040Y173396D01*
X52269Y172441D01*
X52423Y171470D01*
X52500Y170491D01*
X52500Y169509D01*
M02*
