G04 EAGLE Gerber RS-274X export*
G75*
%MOMM*%
%FSLAX34Y34*%
%LPD*%
%INSoldermask Bottom*%
%IPPOS*%
%AMOC8*
5,1,8,0,0,1.08239X$1,22.5*%
G01*
%ADD10C,2.703200*%
%ADD11P,1.649562X8X112.500000*%
%ADD12C,1.524000*%
%ADD13P,1.869504X8X202.500000*%
%ADD14P,1.649562X8X292.500000*%
%ADD15C,1.879600*%
%ADD16P,1.649562X8X22.500000*%
%ADD17P,1.649562X8X202.500000*%
%ADD18R,1.711200X1.711200*%
%ADD19C,1.411200*%
%ADD20C,1.524000*%
%ADD21R,2.603200X2.603200*%
%ADD22P,1.635708X8X202.500000*%
%ADD23R,1.511200X1.511200*%
%ADD24P,1.743947X8X247.500000*%
%ADD25C,1.727200*%
%ADD26R,0.838200X1.473200*%
%ADD27C,0.959600*%

G36*
X154370Y201307D02*
X154370Y201307D01*
X154436Y201309D01*
X154479Y201327D01*
X154526Y201335D01*
X154583Y201369D01*
X154643Y201394D01*
X154678Y201425D01*
X154719Y201450D01*
X154761Y201501D01*
X154809Y201545D01*
X154831Y201587D01*
X154860Y201624D01*
X154881Y201686D01*
X154912Y201745D01*
X154920Y201799D01*
X154932Y201836D01*
X154931Y201876D01*
X154939Y201930D01*
X154939Y204470D01*
X154928Y204535D01*
X154926Y204601D01*
X154908Y204644D01*
X154900Y204691D01*
X154866Y204748D01*
X154841Y204808D01*
X154810Y204843D01*
X154785Y204884D01*
X154734Y204926D01*
X154690Y204974D01*
X154648Y204996D01*
X154611Y205025D01*
X154549Y205046D01*
X154490Y205077D01*
X154436Y205085D01*
X154399Y205097D01*
X154359Y205096D01*
X154305Y205104D01*
X150495Y205104D01*
X150430Y205093D01*
X150364Y205091D01*
X150321Y205073D01*
X150274Y205065D01*
X150217Y205031D01*
X150157Y205006D01*
X150122Y204975D01*
X150081Y204950D01*
X150040Y204899D01*
X149991Y204855D01*
X149969Y204813D01*
X149940Y204776D01*
X149919Y204714D01*
X149888Y204655D01*
X149880Y204601D01*
X149868Y204564D01*
X149868Y204561D01*
X149869Y204524D01*
X149861Y204470D01*
X149861Y201930D01*
X149872Y201865D01*
X149874Y201799D01*
X149892Y201756D01*
X149900Y201709D01*
X149934Y201652D01*
X149959Y201592D01*
X149990Y201557D01*
X150015Y201516D01*
X150066Y201475D01*
X150110Y201426D01*
X150152Y201404D01*
X150189Y201375D01*
X150251Y201354D01*
X150310Y201323D01*
X150364Y201315D01*
X150401Y201303D01*
X150441Y201304D01*
X150495Y201296D01*
X154305Y201296D01*
X154370Y201307D01*
G37*
G36*
X154370Y175907D02*
X154370Y175907D01*
X154436Y175909D01*
X154479Y175927D01*
X154526Y175935D01*
X154583Y175969D01*
X154643Y175994D01*
X154678Y176025D01*
X154719Y176050D01*
X154761Y176101D01*
X154809Y176145D01*
X154831Y176187D01*
X154860Y176224D01*
X154881Y176286D01*
X154912Y176345D01*
X154920Y176399D01*
X154932Y176436D01*
X154931Y176476D01*
X154939Y176530D01*
X154939Y179070D01*
X154928Y179135D01*
X154926Y179201D01*
X154908Y179244D01*
X154900Y179291D01*
X154866Y179348D01*
X154841Y179408D01*
X154810Y179443D01*
X154785Y179484D01*
X154734Y179526D01*
X154690Y179574D01*
X154648Y179596D01*
X154611Y179625D01*
X154549Y179646D01*
X154490Y179677D01*
X154436Y179685D01*
X154399Y179697D01*
X154359Y179696D01*
X154305Y179704D01*
X150495Y179704D01*
X150430Y179693D01*
X150364Y179691D01*
X150321Y179673D01*
X150274Y179665D01*
X150217Y179631D01*
X150157Y179606D01*
X150122Y179575D01*
X150081Y179550D01*
X150040Y179499D01*
X149991Y179455D01*
X149969Y179413D01*
X149940Y179376D01*
X149919Y179314D01*
X149888Y179255D01*
X149880Y179201D01*
X149868Y179164D01*
X149868Y179161D01*
X149869Y179124D01*
X149861Y179070D01*
X149861Y176530D01*
X149872Y176465D01*
X149874Y176399D01*
X149892Y176356D01*
X149900Y176309D01*
X149934Y176252D01*
X149959Y176192D01*
X149990Y176157D01*
X150015Y176116D01*
X150066Y176075D01*
X150110Y176026D01*
X150152Y176004D01*
X150189Y175975D01*
X150251Y175954D01*
X150310Y175923D01*
X150364Y175915D01*
X150401Y175903D01*
X150441Y175904D01*
X150495Y175896D01*
X154305Y175896D01*
X154370Y175907D01*
G37*
G36*
X154370Y150507D02*
X154370Y150507D01*
X154436Y150509D01*
X154479Y150527D01*
X154526Y150535D01*
X154583Y150569D01*
X154643Y150594D01*
X154678Y150625D01*
X154719Y150650D01*
X154761Y150701D01*
X154809Y150745D01*
X154831Y150787D01*
X154860Y150824D01*
X154881Y150886D01*
X154912Y150945D01*
X154920Y150999D01*
X154932Y151036D01*
X154931Y151076D01*
X154939Y151130D01*
X154939Y153670D01*
X154928Y153735D01*
X154926Y153801D01*
X154908Y153844D01*
X154900Y153891D01*
X154866Y153948D01*
X154841Y154008D01*
X154810Y154043D01*
X154785Y154084D01*
X154734Y154126D01*
X154690Y154174D01*
X154648Y154196D01*
X154611Y154225D01*
X154549Y154246D01*
X154490Y154277D01*
X154436Y154285D01*
X154399Y154297D01*
X154359Y154296D01*
X154305Y154304D01*
X150495Y154304D01*
X150430Y154293D01*
X150364Y154291D01*
X150321Y154273D01*
X150274Y154265D01*
X150217Y154231D01*
X150157Y154206D01*
X150122Y154175D01*
X150081Y154150D01*
X150040Y154099D01*
X149991Y154055D01*
X149969Y154013D01*
X149940Y153976D01*
X149919Y153914D01*
X149888Y153855D01*
X149880Y153801D01*
X149868Y153764D01*
X149868Y153761D01*
X149869Y153724D01*
X149861Y153670D01*
X149861Y151130D01*
X149872Y151065D01*
X149874Y150999D01*
X149892Y150956D01*
X149900Y150909D01*
X149934Y150852D01*
X149959Y150792D01*
X149990Y150757D01*
X150015Y150716D01*
X150066Y150675D01*
X150110Y150626D01*
X150152Y150604D01*
X150189Y150575D01*
X150251Y150554D01*
X150310Y150523D01*
X150364Y150515D01*
X150401Y150503D01*
X150441Y150504D01*
X150495Y150496D01*
X154305Y150496D01*
X154370Y150507D01*
G37*
G36*
X154370Y125107D02*
X154370Y125107D01*
X154436Y125109D01*
X154479Y125127D01*
X154526Y125135D01*
X154583Y125169D01*
X154643Y125194D01*
X154678Y125225D01*
X154719Y125250D01*
X154761Y125301D01*
X154809Y125345D01*
X154831Y125387D01*
X154860Y125424D01*
X154881Y125486D01*
X154912Y125545D01*
X154920Y125599D01*
X154932Y125636D01*
X154931Y125676D01*
X154939Y125730D01*
X154939Y128270D01*
X154928Y128335D01*
X154926Y128401D01*
X154908Y128444D01*
X154900Y128491D01*
X154866Y128548D01*
X154841Y128608D01*
X154810Y128643D01*
X154785Y128684D01*
X154734Y128726D01*
X154690Y128774D01*
X154648Y128796D01*
X154611Y128825D01*
X154549Y128846D01*
X154490Y128877D01*
X154436Y128885D01*
X154399Y128897D01*
X154359Y128896D01*
X154305Y128904D01*
X150495Y128904D01*
X150430Y128893D01*
X150364Y128891D01*
X150321Y128873D01*
X150274Y128865D01*
X150217Y128831D01*
X150157Y128806D01*
X150122Y128775D01*
X150081Y128750D01*
X150040Y128699D01*
X149991Y128655D01*
X149969Y128613D01*
X149940Y128576D01*
X149919Y128514D01*
X149888Y128455D01*
X149880Y128401D01*
X149868Y128364D01*
X149868Y128361D01*
X149869Y128324D01*
X149861Y128270D01*
X149861Y125730D01*
X149872Y125665D01*
X149874Y125599D01*
X149892Y125556D01*
X149900Y125509D01*
X149934Y125452D01*
X149959Y125392D01*
X149990Y125357D01*
X150015Y125316D01*
X150066Y125275D01*
X150110Y125226D01*
X150152Y125204D01*
X150189Y125175D01*
X150251Y125154D01*
X150310Y125123D01*
X150364Y125115D01*
X150401Y125103D01*
X150441Y125104D01*
X150495Y125096D01*
X154305Y125096D01*
X154370Y125107D01*
G37*
D10*
X39730Y179620D03*
X509630Y306620D03*
X509630Y52620D03*
D11*
X393700Y134620D03*
D12*
X393700Y114300D03*
D13*
X786130Y279400D03*
X636270Y279400D03*
D14*
X673100Y228600D03*
X673100Y177800D03*
D15*
X762000Y152400D03*
X762000Y50800D03*
X723900Y50800D03*
X723900Y152400D03*
X800100Y152400D03*
X800100Y50800D03*
D14*
X939800Y304800D03*
X939800Y203200D03*
D11*
X977900Y203200D03*
X977900Y304800D03*
D16*
X876300Y177800D03*
X977900Y177800D03*
D17*
X609600Y50800D03*
X558800Y50800D03*
D18*
X495300Y138430D03*
X495300Y214630D03*
D19*
X289800Y195900D03*
X274800Y195900D03*
X259800Y195900D03*
X244800Y195900D03*
D20*
X120904Y203200D02*
X107696Y203200D01*
X107696Y177800D02*
X120904Y177800D01*
X120904Y152400D02*
X107696Y152400D01*
X107696Y127000D02*
X120904Y127000D01*
X183896Y127000D02*
X197104Y127000D01*
X197104Y152400D02*
X183896Y152400D01*
X183896Y177800D02*
X197104Y177800D01*
X197104Y203200D02*
X183896Y203200D01*
D21*
X971550Y57150D03*
D18*
X533400Y127800D03*
X533400Y227800D03*
D15*
X838200Y76200D03*
X838200Y177800D03*
D22*
X406400Y254160D03*
X381000Y254160D03*
X355600Y254160D03*
X330200Y254160D03*
X304800Y254160D03*
X279400Y254160D03*
X254000Y254160D03*
X228600Y254160D03*
X203200Y254160D03*
X177800Y254160D03*
X152400Y254160D03*
X127000Y254160D03*
X101600Y254160D03*
X76200Y254160D03*
X50800Y254160D03*
X25400Y254160D03*
X25400Y50960D03*
X50800Y50960D03*
X76200Y50960D03*
X101600Y50960D03*
X127000Y50960D03*
X152400Y50960D03*
X177800Y50960D03*
X203200Y50960D03*
X228600Y50960D03*
X254000Y50960D03*
X279400Y50960D03*
X304800Y50960D03*
X330200Y50960D03*
X355600Y50960D03*
X381000Y50960D03*
X406400Y50960D03*
D23*
X431800Y254160D03*
X431800Y50960D03*
D12*
X685800Y152400D03*
X685800Y50800D03*
D17*
X419100Y215900D03*
X317500Y215900D03*
D11*
X647700Y50800D03*
X647700Y152400D03*
D23*
X457200Y304800D03*
D22*
X431800Y304800D03*
X406400Y304800D03*
X381000Y304800D03*
X355600Y304800D03*
X330200Y304800D03*
X304800Y304800D03*
X279400Y304800D03*
X254000Y304800D03*
X228600Y304800D03*
X203200Y304800D03*
X177800Y304800D03*
X152400Y304800D03*
X127000Y304800D03*
X101600Y304800D03*
X76200Y304800D03*
X50800Y304800D03*
X25400Y304800D03*
X25400Y76200D03*
X50800Y76200D03*
X76200Y76200D03*
X101600Y76200D03*
X127000Y76200D03*
X152400Y76200D03*
X177800Y76200D03*
X203200Y76200D03*
X228600Y76200D03*
X254000Y76200D03*
X279400Y76200D03*
X304800Y76200D03*
X330200Y76200D03*
X355600Y76200D03*
X381000Y76200D03*
X406400Y76200D03*
X431800Y76200D03*
D23*
X457200Y76200D03*
D24*
X880291Y284661D03*
X844369Y248739D03*
D25*
X604520Y241300D02*
X589280Y241300D01*
X589280Y215900D02*
X604520Y215900D01*
X604520Y190500D02*
X589280Y190500D01*
X589280Y165100D02*
X604520Y165100D01*
X604520Y139700D02*
X589280Y139700D01*
D21*
X908700Y120650D03*
X984900Y120650D03*
D26*
X157480Y127000D03*
X147320Y127000D03*
X157480Y152400D03*
X147320Y152400D03*
X157480Y177800D03*
X147320Y177800D03*
X157480Y203200D03*
X147320Y203200D03*
D27*
X317500Y101600D03*
X342900Y228600D03*
X558800Y203200D03*
X368300Y292100D03*
X711200Y177800D03*
X546100Y165100D03*
X863600Y317500D03*
X38100Y114300D03*
M02*
